<svg xmlns="http://www.w3.org/2000/svg" width="500" height="500" viewBox="0 0 2000 2000">
  <path d="M 915 619 L 900 623 L 899 622 L 894 625 L 893 624 L 882 627 L 875 630 L 872 630 L 870 632 L 869 631 L 850 639 L 849 638 L 846 641 L 844 640 L 832 647 L 829 647 L 812 656 L 810 656 L 806 660 L 801 661 L 800 663 L 790 669 L 786 670 L 785 672 L 764 685 L 762 688 L 740 705 L 740 707 L 730 715 L 714 731 L 706 741 L 704 741 L 697 751 L 696 750 L 694 754 L 680 770 L 671 782 L 671 784 L 667 787 L 667 789 L 664 792 L 657 804 L 655 805 L 654 809 L 652 810 L 651 814 L 649 815 L 648 820 L 645 822 L 641 833 L 630 853 L 628 860 L 625 865 L 626 866 L 622 873 L 623 874 L 621 876 L 618 886 L 619 887 L 617 890 L 614 901 L 614 905 L 610 920 L 611 921 L 609 922 L 610 924 L 606 943 L 607 946 L 605 951 L 605 959 L 604 960 L 605 964 L 603 966 L 604 971 L 603 972 L 603 981 L 602 982 L 603 983 L 603 1013 L 602 1014 L 603 1015 L 603 1024 L 605 1033 L 604 1037 L 606 1043 L 605 1044 L 606 1054 L 607 1055 L 606 1057 L 608 1061 L 608 1067 L 610 1077 L 612 1081 L 611 1083 L 616 1099 L 615 1100 L 618 1106 L 617 1107 L 619 1109 L 619 1112 L 621 1114 L 620 1115 L 627 1133 L 626 1134 L 630 1141 L 629 1142 L 635 1152 L 634 1154 L 638 1159 L 637 1161 L 644 1172 L 656 1197 L 658 1198 L 659 1202 L 661 1203 L 661 1205 L 666 1213 L 668 1214 L 668 1216 L 675 1225 L 675 1227 L 676 1226 L 678 1230 L 690 1246 L 691 1245 L 701 1258 L 705 1260 L 711 1266 L 711 1268 L 728 1282 L 743 1297 L 749 1300 L 748 1301 L 754 1304 L 753 1305 L 756 1306 L 767 1315 L 769 1315 L 770 1317 L 772 1317 L 773 1319 L 775 1319 L 776 1321 L 778 1321 L 779 1322 L 778 1323 L 781 1323 L 782 1325 L 788 1328 L 789 1330 L 794 1331 L 795 1333 L 801 1335 L 803 1338 L 812 1341 L 823 1348 L 826 1348 L 833 1353 L 836 1353 L 847 1359 L 848 1358 L 853 1360 L 855 1362 L 856 1361 L 859 1363 L 860 1362 L 866 1366 L 867 1365 L 873 1368 L 899 1375 L 900 1374 L 903 1376 L 908 1377 L 909 1376 L 910 1378 L 914 1377 L 915 1379 L 919 1378 L 920 1380 L 922 1379 L 935 1382 L 937 1381 L 946 1384 L 947 1383 L 955 1385 L 956 1384 L 960 1385 L 965 1384 L 968 1386 L 969 1385 L 975 1385 L 976 1386 L 989 1386 L 990 1385 L 992 1386 L 1000 1386 L 1001 1385 L 1003 1386 L 1015 1386 L 1016 1385 L 1023 1385 L 1024 1386 L 1031 1384 L 1041 1384 L 1046 1382 L 1049 1383 L 1054 1381 L 1055 1382 L 1058 1381 L 1060 1382 L 1064 1380 L 1080 1378 L 1083 1376 L 1084 1377 L 1102 1373 L 1104 1371 L 1105 1372 L 1111 1370 L 1113 1368 L 1114 1369 L 1117 1367 L 1118 1368 L 1120 1366 L 1130 1363 L 1132 1361 L 1133 1362 L 1138 1359 L 1139 1360 L 1143 1357 L 1150 1355 L 1184 1338 L 1186 1338 L 1188 1335 L 1190 1335 L 1194 1333 L 1195 1331 L 1199 1330 L 1200 1328 L 1207 1325 L 1219 1316 L 1221 1316 L 1222 1314 L 1230 1308 L 1233 1307 L 1260 1280 L 1263 1279 L 1278 1262 L 1285 1256 L 1288 1251 L 1292 1248 L 1294 1244 L 1302 1235 L 1304 1231 L 1305 1232 L 1306 1228 L 1308 1227 L 1316 1215 L 1318 1214 L 1318 1212 L 1320 1211 L 1320 1209 L 1324 1205 L 1324 1202 L 1329 1197 L 1330 1192 L 1332 1191 L 1334 1185 L 1338 1181 L 1338 1179 L 1348 1161 L 1348 1158 L 1352 1151 L 1352 1148 L 1354 1146 L 1359 1134 L 1358 1133 L 1362 1127 L 1361 1126 L 1363 1123 L 1366 1110 L 1369 1104 L 1368 1103 L 1371 1095 L 1374 1078 L 1376 1075 L 1375 1074 L 1379 1056 L 1378 1054 L 1381 1046 L 1380 1043 L 1382 1034 L 1381 1030 L 1383 1022 L 1383 1017 L 1382 1016 L 1383 1015 L 1383 1000 L 1384 999 L 1383 974 L 1382 973 L 1383 968 L 1381 959 L 1382 955 L 1380 950 L 1381 947 L 1379 942 L 1380 939 L 1379 938 L 1378 927 L 1375 914 L 1373 911 L 1374 908 L 1371 902 L 1371 899 L 1369 895 L 1370 894 L 1367 890 L 1368 889 L 1362 871 L 1360 869 L 1361 868 L 1359 865 L 1360 864 L 1357 861 L 1358 860 L 1355 856 L 1356 855 L 1350 841 L 1344 831 L 1336 813 L 1332 806 L 1330 805 L 1329 801 L 1327 800 L 1327 798 L 1325 796 L 1325 794 L 1323 793 L 1323 791 L 1321 790 L 1321 788 L 1319 787 L 1303 765 L 1300 763 L 1296 756 L 1295 757 L 1289 749 L 1264 724 L 1253 715 L 1252 712 L 1244 707 L 1241 703 L 1228 692 L 1220 687 L 1221 686 L 1218 685 L 1217 683 L 1213 682 L 1208 677 L 1206 677 L 1205 676 L 1206 675 L 1204 675 L 1198 671 L 1197 669 L 1194 669 L 1193 667 L 1186 664 L 1185 662 L 1180 660 L 1179 658 L 1177 658 L 1173 656 L 1172 654 L 1170 654 L 1144 641 L 1143 642 L 1141 640 L 1123 634 L 1122 635 L 1115 631 L 1112 632 L 1099 627 L 1090 626 L 1070 621 L 1051 619 L 1050 618 L 1042 618 L 1037 616 L 1036 617 L 1026 616 L 1025 615 L 1024 616 L 1020 615 L 1014 615 L 1013 616 L 1009 614 L 1008 615 L 990 615 L 989 614 L 988 615 L 965 615 L 964 616 L 963 615 L 957 615 L 956 616 L 943 616 L 935 618 L 931 617 L 926 619 L 925 618 Z M 1013 726 L 1017 728 L 1018 727 L 1021 728 L 1023 727 L 1036 730 L 1038 729 L 1043 731 L 1045 730 L 1046 732 L 1047 731 L 1073 737 L 1077 739 L 1078 738 L 1080 740 L 1081 739 L 1083 741 L 1091 743 L 1093 745 L 1094 744 L 1098 747 L 1100 746 L 1102 748 L 1106 749 L 1136 765 L 1138 765 L 1139 767 L 1143 768 L 1144 770 L 1147 771 L 1159 781 L 1163 783 L 1162 784 L 1165 785 L 1171 790 L 1176 796 L 1182 800 L 1198 816 L 1202 822 L 1203 821 L 1225 850 L 1225 852 L 1227 853 L 1227 855 L 1231 859 L 1232 863 L 1234 864 L 1235 867 L 1238 870 L 1238 872 L 1241 878 L 1244 881 L 1246 888 L 1248 890 L 1247 891 L 1251 899 L 1250 900 L 1252 902 L 1251 903 L 1253 905 L 1263 941 L 1266 964 L 1268 970 L 1267 975 L 1269 983 L 1268 984 L 1268 996 L 1269 997 L 1268 998 L 1268 1021 L 1267 1022 L 1267 1031 L 1266 1032 L 1267 1034 L 1265 1038 L 1261 1058 L 1262 1059 L 1260 1062 L 1256 1080 L 1253 1086 L 1254 1087 L 1249 1099 L 1250 1100 L 1248 1102 L 1244 1114 L 1240 1120 L 1240 1124 L 1235 1133 L 1232 1136 L 1227 1148 L 1225 1149 L 1225 1151 L 1223 1152 L 1221 1157 L 1217 1160 L 1213 1168 L 1212 1167 L 1212 1169 L 1188 1192 L 1189 1193 L 1180 1199 L 1181 1200 L 1173 1205 L 1174 1206 L 1168 1209 L 1169 1210 L 1159 1216 L 1160 1217 L 1159 1218 L 1157 1218 L 1151 1223 L 1149 1223 L 1148 1225 L 1146 1225 L 1145 1227 L 1143 1227 L 1142 1229 L 1140 1229 L 1139 1231 L 1126 1238 L 1123 1241 L 1121 1241 L 1103 1251 L 1099 1251 L 1094 1255 L 1092 1254 L 1088 1257 L 1077 1261 L 1061 1265 L 1060 1264 L 1059 1266 L 1058 1265 L 1053 1266 L 1050 1268 L 1049 1267 L 1041 1268 L 1037 1270 L 1036 1269 L 1034 1270 L 1031 1269 L 1020 1272 L 1019 1271 L 1014 1271 L 1013 1272 L 1008 1271 L 1001 1273 L 999 1272 L 983 1272 L 981 1273 L 980 1272 L 968 1272 L 960 1270 L 956 1271 L 955 1270 L 926 1267 L 921 1265 L 920 1266 L 916 1263 L 915 1264 L 908 1261 L 907 1262 L 905 1260 L 900 1258 L 899 1259 L 897 1257 L 883 1252 L 859 1240 L 858 1238 L 852 1236 L 851 1234 L 847 1233 L 843 1229 L 840 1229 L 839 1228 L 840 1227 L 835 1225 L 830 1220 L 825 1218 L 826 1217 L 824 1217 L 815 1209 L 811 1207 L 812 1206 L 808 1204 L 793 1189 L 789 1183 L 788 1184 L 783 1176 L 775 1168 L 774 1165 L 772 1164 L 771 1161 L 769 1160 L 763 1152 L 763 1150 L 761 1149 L 761 1147 L 759 1146 L 759 1144 L 757 1143 L 754 1137 L 752 1136 L 751 1132 L 748 1129 L 745 1120 L 742 1117 L 735 1100 L 732 1096 L 733 1095 L 730 1091 L 731 1090 L 726 1078 L 727 1077 L 725 1075 L 723 1061 L 721 1056 L 722 1055 L 721 1053 L 722 1050 L 720 1045 L 721 1042 L 719 1036 L 719 1026 L 718 1025 L 719 1020 L 717 1016 L 718 1015 L 717 984 L 718 983 L 718 974 L 719 973 L 718 968 L 720 962 L 719 961 L 721 954 L 720 951 L 722 945 L 722 940 L 724 937 L 723 936 L 725 927 L 728 919 L 730 917 L 729 915 L 732 911 L 732 908 L 737 901 L 739 893 L 741 891 L 745 881 L 748 878 L 750 872 L 753 870 L 754 866 L 756 865 L 757 861 L 759 860 L 759 857 L 761 856 L 767 847 L 767 845 L 774 838 L 776 833 L 777 834 L 780 828 L 781 829 L 783 824 L 788 820 L 792 814 L 794 814 L 813 795 L 813 793 L 822 787 L 821 786 L 828 782 L 827 781 L 831 779 L 836 774 L 845 768 L 849 767 L 850 765 L 855 763 L 856 761 L 863 759 L 865 756 L 871 755 L 881 749 L 884 749 L 888 746 L 901 742 L 903 740 L 904 741 L 908 739 L 909 740 L 913 737 L 914 738 L 926 734 L 947 731 L 948 730 L 954 730 L 955 729 L 958 730 L 960 728 L 961 729 L 965 728 L 969 729 L 971 727 L 972 728 L 976 727 L 986 728 L 993 726 L 995 727 L 1012 727 Z M 703 533 L 702 535 L 696 538 L 695 540 L 692 540 L 691 542 L 685 545 L 682 548 L 680 548 L 681 549 L 673 553 L 672 555 L 660 564 L 657 565 L 658 566 L 654 568 L 643 578 L 638 581 L 634 586 L 628 590 L 628 592 L 608 609 L 607 612 L 602 615 L 580 640 L 577 641 L 571 650 L 568 651 L 566 655 L 561 659 L 556 667 L 555 666 L 554 669 L 534 694 L 531 700 L 530 699 L 530 701 L 524 710 L 522 711 L 522 713 L 520 714 L 520 717 L 518 718 L 511 731 L 509 732 L 508 737 L 506 738 L 503 745 L 500 748 L 500 750 L 496 756 L 495 762 L 489 771 L 489 774 L 485 780 L 485 783 L 480 792 L 481 793 L 478 797 L 479 798 L 477 803 L 475 805 L 476 806 L 474 809 L 464 839 L 454 877 L 448 909 L 448 914 L 447 915 L 448 917 L 445 929 L 444 945 L 443 946 L 444 950 L 442 958 L 442 971 L 441 972 L 441 978 L 442 979 L 440 982 L 441 983 L 441 994 L 440 995 L 441 1052 L 440 1053 L 442 1058 L 441 1059 L 441 1066 L 442 1067 L 444 1088 L 446 1094 L 449 1114 L 451 1117 L 450 1118 L 451 1123 L 453 1126 L 452 1127 L 454 1130 L 453 1131 L 456 1138 L 455 1141 L 459 1151 L 458 1152 L 461 1156 L 460 1157 L 462 1161 L 461 1162 L 465 1169 L 464 1170 L 467 1179 L 469 1181 L 468 1182 L 471 1188 L 472 1193 L 474 1195 L 473 1196 L 475 1201 L 477 1203 L 476 1205 L 479 1208 L 478 1210 L 481 1213 L 480 1215 L 483 1219 L 486 1226 L 486 1229 L 491 1236 L 491 1240 L 493 1242 L 506 1269 L 521 1295 L 523 1296 L 524 1300 L 528 1305 L 528 1307 L 530 1308 L 540 1324 L 549 1335 L 550 1338 L 551 1337 L 554 1343 L 557 1345 L 564 1355 L 569 1359 L 571 1363 L 572 1362 L 579 1372 L 581 1372 L 593 1386 L 606 1397 L 606 1399 L 613 1404 L 622 1413 L 627 1416 L 626 1417 L 630 1419 L 644 1431 L 648 1433 L 647 1434 L 650 1435 L 661 1444 L 663 1444 L 664 1446 L 668 1449 L 670 1449 L 671 1451 L 673 1451 L 674 1453 L 676 1453 L 677 1455 L 679 1455 L 680 1457 L 682 1457 L 683 1459 L 685 1459 L 690 1464 L 692 1464 L 697 1467 L 698 1469 L 704 1471 L 705 1473 L 710 1474 L 711 1476 L 721 1480 L 729 1486 L 735 1487 L 744 1493 L 746 1492 L 760 1500 L 762 1499 L 768 1503 L 778 1507 L 779 1506 L 783 1509 L 784 1508 L 787 1511 L 788 1510 L 792 1513 L 793 1512 L 799 1515 L 800 1514 L 802 1516 L 820 1522 L 821 1521 L 823 1523 L 836 1526 L 842 1529 L 843 1528 L 846 1530 L 847 1529 L 865 1534 L 866 1533 L 869 1535 L 883 1537 L 887 1539 L 889 1538 L 895 1540 L 907 1541 L 908 1542 L 910 1541 L 914 1543 L 921 1543 L 922 1544 L 925 1543 L 936 1546 L 937 1545 L 942 1546 L 947 1545 L 950 1547 L 951 1546 L 956 1546 L 957 1547 L 963 1547 L 964 1546 L 967 1548 L 968 1547 L 975 1547 L 976 1548 L 1014 1548 L 1015 1547 L 1027 1547 L 1028 1546 L 1032 1547 L 1034 1545 L 1035 1546 L 1039 1545 L 1043 1546 L 1045 1544 L 1048 1545 L 1049 1544 L 1063 1543 L 1073 1540 L 1075 1541 L 1084 1538 L 1086 1539 L 1096 1537 L 1099 1535 L 1101 1536 L 1111 1533 L 1112 1534 L 1115 1532 L 1119 1531 L 1120 1532 L 1130 1528 L 1138 1526 L 1139 1527 L 1151 1522 L 1152 1523 L 1154 1521 L 1157 1521 L 1159 1519 L 1160 1520 L 1169 1516 L 1170 1517 L 1176 1513 L 1177 1514 L 1207 1502 L 1214 1498 L 1217 1498 L 1219 1496 L 1245 1483 L 1247 1483 L 1249 1480 L 1256 1478 L 1259 1475 L 1267 1471 L 1268 1469 L 1276 1466 L 1282 1460 L 1285 1459 L 1284 1458 L 1298 1449 L 1297 1448 L 1305 1442 L 1310 1436 L 1312 1432 L 1313 1433 L 1314 1430 L 1317 1427 L 1317 1422 L 1319 1417 L 1318 1413 L 1320 1404 L 1319 1403 L 1319 1374 L 1320 1373 L 1319 1372 L 1319 1358 L 1318 1357 L 1318 1342 L 1319 1341 L 1317 1334 L 1318 1333 L 1318 1323 L 1317 1322 L 1317 1312 L 1318 1311 L 1316 1305 L 1317 1302 L 1306 1302 L 1301 1312 L 1291 1321 L 1291 1323 L 1266 1344 L 1263 1345 L 1264 1346 L 1254 1352 L 1255 1353 L 1250 1355 L 1249 1357 L 1232 1368 L 1231 1370 L 1229 1370 L 1222 1375 L 1216 1377 L 1214 1380 L 1203 1384 L 1201 1387 L 1197 1388 L 1181 1397 L 1177 1397 L 1168 1403 L 1157 1406 L 1153 1409 L 1127 1418 L 1124 1420 L 1094 1429 L 1081 1432 L 1080 1431 L 1073 1434 L 1068 1434 L 1067 1435 L 1065 1434 L 1058 1437 L 1056 1436 L 1052 1438 L 1050 1437 L 1049 1438 L 1034 1439 L 1033 1440 L 1023 1440 L 1022 1441 L 1014 1441 L 1013 1440 L 1012 1441 L 1002 1441 L 1001 1442 L 972 1442 L 971 1441 L 969 1442 L 963 1442 L 962 1441 L 961 1442 L 951 1442 L 942 1440 L 937 1441 L 931 1439 L 928 1440 L 927 1439 L 919 1439 L 915 1437 L 914 1438 L 886 1433 L 873 1429 L 869 1429 L 852 1423 L 851 1424 L 849 1422 L 843 1421 L 837 1418 L 836 1419 L 830 1415 L 829 1416 L 821 1412 L 820 1413 L 817 1410 L 816 1411 L 802 1405 L 794 1400 L 791 1400 L 774 1391 L 772 1391 L 768 1387 L 758 1383 L 751 1379 L 750 1377 L 747 1377 L 742 1372 L 739 1372 L 738 1370 L 736 1370 L 733 1366 L 728 1364 L 720 1358 L 719 1356 L 709 1350 L 710 1349 L 704 1346 L 705 1345 L 699 1342 L 691 1333 L 677 1322 L 677 1320 L 670 1313 L 667 1312 L 658 1300 L 653 1296 L 651 1292 L 650 1293 L 647 1288 L 635 1274 L 635 1272 L 634 1273 L 633 1272 L 633 1270 L 627 1262 L 625 1261 L 625 1259 L 618 1250 L 615 1244 L 613 1243 L 613 1240 L 611 1239 L 603 1226 L 601 1220 L 599 1219 L 597 1213 L 595 1212 L 593 1205 L 586 1194 L 586 1190 L 580 1179 L 581 1178 L 578 1174 L 574 1164 L 575 1163 L 571 1157 L 572 1156 L 570 1153 L 564 1135 L 565 1134 L 563 1132 L 563 1129 L 559 1120 L 560 1119 L 553 1094 L 554 1093 L 552 1090 L 550 1076 L 548 1072 L 549 1071 L 547 1063 L 548 1061 L 546 1057 L 547 1054 L 545 1049 L 545 1041 L 544 1040 L 545 1037 L 543 1035 L 544 1034 L 543 1030 L 544 1025 L 542 1015 L 543 1005 L 541 995 L 542 981 L 543 980 L 542 976 L 544 974 L 543 973 L 545 965 L 544 964 L 545 961 L 544 959 L 546 954 L 547 942 L 549 938 L 548 936 L 551 925 L 550 923 L 552 922 L 551 920 L 553 917 L 552 916 L 555 906 L 555 902 L 559 892 L 558 891 L 564 873 L 563 872 L 570 855 L 569 854 L 573 847 L 572 846 L 574 844 L 580 827 L 584 821 L 584 817 L 589 810 L 600 786 L 603 783 L 605 777 L 609 770 L 611 769 L 612 765 L 614 764 L 614 762 L 620 752 L 624 748 L 624 746 L 626 745 L 626 743 L 628 742 L 630 737 L 632 736 L 632 734 L 647 716 L 650 711 L 651 712 L 657 703 L 660 702 L 666 694 L 681 681 L 682 678 L 691 672 L 700 663 L 703 662 L 702 661 L 708 658 L 707 657 L 712 655 L 713 653 L 721 647 L 723 647 L 722 646 L 723 645 L 725 645 L 730 640 L 732 640 L 733 638 L 738 636 L 739 634 L 742 634 L 743 632 L 750 629 L 751 627 L 763 620 L 771 617 L 774 614 L 799 602 L 801 600 L 803 601 L 808 597 L 810 598 L 814 595 L 836 586 L 844 584 L 846 582 L 847 583 L 849 581 L 850 582 L 857 579 L 873 575 L 874 576 L 881 573 L 891 572 L 892 571 L 894 572 L 898 570 L 904 570 L 910 568 L 911 569 L 914 568 L 917 569 L 919 567 L 920 568 L 930 567 L 931 566 L 932 567 L 936 566 L 942 566 L 943 567 L 948 565 L 950 566 L 1010 566 L 1011 565 L 1016 567 L 1017 566 L 1030 567 L 1031 568 L 1032 567 L 1037 568 L 1042 567 L 1044 569 L 1048 568 L 1060 571 L 1062 570 L 1076 573 L 1078 572 L 1082 574 L 1091 575 L 1094 577 L 1095 576 L 1098 578 L 1099 577 L 1102 579 L 1103 578 L 1106 580 L 1107 579 L 1110 581 L 1111 580 L 1151 593 L 1181 606 L 1195 614 L 1196 616 L 1200 617 L 1201 619 L 1205 620 L 1206 622 L 1210 623 L 1214 627 L 1221 630 L 1236 641 L 1238 641 L 1239 642 L 1238 643 L 1242 644 L 1243 646 L 1254 653 L 1258 658 L 1264 661 L 1263 662 L 1266 663 L 1271 668 L 1275 670 L 1284 680 L 1292 686 L 1308 702 L 1312 708 L 1313 707 L 1318 714 L 1322 717 L 1326 724 L 1329 726 L 1330 729 L 1331 728 L 1334 734 L 1335 733 L 1340 741 L 1342 742 L 1343 746 L 1344 745 L 1348 753 L 1352 756 L 1352 758 L 1354 759 L 1354 761 L 1358 765 L 1358 767 L 1360 768 L 1360 771 L 1362 772 L 1365 779 L 1367 780 L 1368 784 L 1370 785 L 1371 789 L 1373 790 L 1374 794 L 1376 795 L 1377 799 L 1382 805 L 1382 807 L 1386 813 L 1386 817 L 1391 824 L 1390 826 L 1395 835 L 1402 855 L 1401 856 L 1404 861 L 1405 865 L 1404 866 L 1408 874 L 1407 875 L 1414 904 L 1414 909 L 1417 922 L 1416 925 L 1418 930 L 1418 937 L 1420 943 L 1419 944 L 1420 960 L 1421 961 L 1420 966 L 1422 969 L 1421 970 L 1421 977 L 1422 978 L 1422 989 L 1421 990 L 1423 997 L 1422 999 L 1422 1088 L 1423 1089 L 1423 1244 L 1422 1245 L 1422 1253 L 1423 1254 L 1423 1324 L 1424 1325 L 1424 1337 L 1423 1338 L 1423 1511 L 1424 1512 L 1424 1625 L 1423 1626 L 1423 1636 L 1424 1637 L 1424 1719 L 1425 1720 L 1425 1735 L 1424 1736 L 1424 1843 L 1426 1849 L 1425 1851 L 1427 1859 L 1431 1867 L 1525 1867 L 1526 1868 L 1525 1867 L 1525 1802 L 1526 1801 L 1526 1578 L 1525 1577 L 1525 1554 L 1526 1553 L 1526 1426 L 1527 1425 L 1527 1408 L 1526 1407 L 1526 1162 L 1527 1161 L 1527 1000 L 1526 999 L 1526 985 L 1527 983 L 1525 978 L 1526 977 L 1526 970 L 1525 969 L 1525 963 L 1526 962 L 1524 959 L 1525 954 L 1524 953 L 1524 942 L 1523 941 L 1523 931 L 1522 930 L 1523 927 L 1520 917 L 1521 916 L 1520 913 L 1521 911 L 1518 903 L 1519 901 L 1518 900 L 1517 889 L 1515 885 L 1516 884 L 1514 877 L 1515 876 L 1513 873 L 1512 864 L 1510 859 L 1511 858 L 1508 853 L 1509 852 L 1503 833 L 1504 832 L 1501 828 L 1502 827 L 1499 820 L 1500 819 L 1498 817 L 1495 806 L 1493 804 L 1494 802 L 1492 800 L 1483 776 L 1479 770 L 1478 764 L 1473 755 L 1471 754 L 1470 750 L 1468 749 L 1464 739 L 1459 734 L 1459 731 L 1454 726 L 1454 723 L 1452 722 L 1440 704 L 1440 702 L 1439 703 L 1435 695 L 1434 696 L 1430 688 L 1429 689 L 1427 684 L 1426 685 L 1424 681 L 1422 680 L 1413 666 L 1409 663 L 1408 660 L 1407 661 L 1403 654 L 1402 655 L 1389 638 L 1387 638 L 1380 629 L 1356 605 L 1348 599 L 1348 597 L 1340 592 L 1329 581 L 1325 579 L 1326 578 L 1320 575 L 1321 574 L 1318 573 L 1294 554 L 1292 554 L 1291 553 L 1292 552 L 1284 548 L 1285 547 L 1283 547 L 1280 544 L 1262 533 L 1261 531 L 1254 528 L 1253 526 L 1243 522 L 1231 514 L 1223 511 L 1221 509 L 1213 507 L 1206 502 L 1204 503 L 1198 499 L 1197 500 L 1193 497 L 1192 498 L 1188 495 L 1187 496 L 1183 493 L 1182 494 L 1178 491 L 1177 492 L 1171 488 L 1170 489 L 1161 485 L 1160 486 L 1153 482 L 1152 483 L 1145 480 L 1144 481 L 1137 477 L 1134 478 L 1126 474 L 1125 475 L 1113 472 L 1110 470 L 1109 471 L 1084 465 L 1066 463 L 1062 461 L 1060 462 L 1059 461 L 1052 461 L 1043 459 L 1039 460 L 1037 458 L 1033 459 L 1025 457 L 1024 458 L 1017 458 L 1016 457 L 1010 457 L 1009 458 L 1008 457 L 984 457 L 983 456 L 982 457 L 964 457 L 963 456 L 957 458 L 956 457 L 949 457 L 940 459 L 935 458 L 929 460 L 928 459 L 924 460 L 921 459 L 915 461 L 908 461 L 903 463 L 902 462 L 893 464 L 891 463 L 887 465 L 885 464 L 881 466 L 876 466 L 853 471 L 836 476 L 833 478 L 832 477 L 825 480 L 822 480 L 801 487 L 798 489 L 797 488 L 794 491 L 793 490 L 780 496 L 779 495 L 775 498 L 774 497 L 771 500 L 768 500 L 761 503 L 751 509 L 745 510 L 733 518 L 720 523 L 716 527 L 714 527 L 710 530 L 708 530 L 707 532 Z M 716 561 L 721 560 L 722 558 L 727 556 L 728 554 L 741 549 L 745 545 L 747 545 L 751 542 L 755 542 L 767 535 L 770 535 L 775 531 L 777 532 L 783 528 L 788 527 L 796 523 L 797 524 L 799 522 L 807 519 L 808 520 L 810 518 L 818 516 L 820 514 L 821 515 L 825 513 L 826 514 L 830 511 L 831 512 L 837 509 L 840 510 L 843 508 L 854 505 L 858 505 L 863 503 L 864 504 L 867 502 L 882 499 L 883 500 L 884 498 L 885 499 L 886 498 L 898 497 L 902 495 L 907 496 L 913 494 L 938 492 L 939 491 L 952 491 L 953 490 L 969 490 L 970 489 L 978 489 L 979 490 L 984 488 L 985 489 L 1041 489 L 1042 490 L 1047 489 L 1048 490 L 1076 493 L 1086 496 L 1088 495 L 1123 503 L 1126 505 L 1129 504 L 1132 506 L 1141 508 L 1143 510 L 1144 509 L 1146 511 L 1147 510 L 1156 513 L 1158 515 L 1159 514 L 1162 516 L 1163 515 L 1165 517 L 1175 520 L 1179 523 L 1180 522 L 1185 525 L 1186 524 L 1192 528 L 1195 528 L 1202 533 L 1206 533 L 1208 535 L 1230 546 L 1232 546 L 1233 548 L 1252 558 L 1253 560 L 1258 561 L 1261 565 L 1263 565 L 1269 570 L 1271 570 L 1272 571 L 1271 572 L 1273 572 L 1287 583 L 1290 584 L 1292 587 L 1300 592 L 1299 593 L 1305 596 L 1304 597 L 1307 598 L 1316 607 L 1323 611 L 1327 616 L 1332 619 L 1365 652 L 1369 658 L 1372 659 L 1377 667 L 1378 666 L 1386 676 L 1387 679 L 1388 678 L 1391 684 L 1392 683 L 1394 687 L 1413 712 L 1413 714 L 1415 715 L 1415 717 L 1417 718 L 1424 729 L 1425 733 L 1427 734 L 1433 746 L 1436 749 L 1441 762 L 1447 771 L 1447 774 L 1453 784 L 1453 788 L 1460 800 L 1460 803 L 1466 818 L 1468 820 L 1467 821 L 1469 824 L 1475 842 L 1474 843 L 1476 845 L 1475 846 L 1478 850 L 1477 851 L 1479 855 L 1481 865 L 1483 868 L 1482 871 L 1484 874 L 1485 882 L 1487 887 L 1490 907 L 1492 913 L 1493 926 L 1495 931 L 1494 932 L 1495 935 L 1494 938 L 1496 944 L 1495 947 L 1497 955 L 1497 968 L 1498 969 L 1498 975 L 1497 976 L 1499 981 L 1498 982 L 1498 994 L 1499 995 L 1498 1258 L 1499 1259 L 1499 1269 L 1498 1270 L 1498 1319 L 1497 1320 L 1497 1332 L 1498 1333 L 1498 1476 L 1497 1477 L 1497 1660 L 1498 1661 L 1498 1676 L 1497 1677 L 1497 1725 L 1496 1726 L 1496 1736 L 1497 1737 L 1497 1837 L 1496 1838 L 1460 1838 L 1457 1835 L 1457 1833 L 1454 1829 L 1455 1827 L 1453 1824 L 1454 1815 L 1453 1814 L 1453 1754 L 1454 1753 L 1454 1678 L 1453 1677 L 1453 1671 L 1454 1670 L 1454 1644 L 1455 1643 L 1455 1636 L 1454 1635 L 1455 1425 L 1454 1424 L 1454 1418 L 1455 1417 L 1455 1387 L 1456 1386 L 1456 1381 L 1455 1380 L 1455 1307 L 1456 1306 L 1456 1188 L 1455 1187 L 1455 1181 L 1456 1180 L 1456 1151 L 1457 1150 L 1456 1145 L 1456 1032 L 1457 1031 L 1455 1024 L 1456 1023 L 1456 1015 L 1455 1014 L 1455 1007 L 1456 1006 L 1454 1003 L 1455 1002 L 1455 997 L 1454 996 L 1454 991 L 1455 990 L 1453 982 L 1453 971 L 1451 965 L 1452 962 L 1450 956 L 1451 953 L 1449 948 L 1450 947 L 1449 945 L 1450 942 L 1447 934 L 1448 933 L 1446 928 L 1447 923 L 1445 922 L 1446 920 L 1442 900 L 1439 893 L 1440 892 L 1438 884 L 1436 881 L 1437 878 L 1435 875 L 1435 872 L 1430 858 L 1431 857 L 1429 855 L 1430 854 L 1428 852 L 1425 841 L 1423 839 L 1424 838 L 1420 830 L 1421 829 L 1416 820 L 1417 819 L 1410 807 L 1410 803 L 1408 801 L 1398 781 L 1398 779 L 1395 777 L 1393 770 L 1390 768 L 1388 762 L 1386 761 L 1386 759 L 1383 756 L 1382 752 L 1377 744 L 1375 743 L 1375 740 L 1373 739 L 1365 726 L 1363 725 L 1360 718 L 1358 717 L 1357 714 L 1356 715 L 1354 711 L 1346 702 L 1345 699 L 1341 696 L 1339 692 L 1333 687 L 1328 680 L 1325 679 L 1309 661 L 1299 654 L 1288 643 L 1284 641 L 1285 640 L 1275 634 L 1273 631 L 1261 622 L 1259 622 L 1258 621 L 1259 620 L 1252 617 L 1251 615 L 1238 607 L 1237 605 L 1234 605 L 1233 603 L 1222 597 L 1219 594 L 1215 593 L 1194 582 L 1191 582 L 1184 577 L 1181 577 L 1169 571 L 1168 572 L 1166 570 L 1154 565 L 1153 566 L 1150 563 L 1149 564 L 1146 562 L 1145 563 L 1143 561 L 1128 557 L 1119 553 L 1116 554 L 1108 550 L 1107 551 L 1102 549 L 1101 550 L 1094 547 L 1079 544 L 1077 545 L 1070 542 L 1069 543 L 1060 541 L 1058 542 L 1053 540 L 1047 540 L 1046 539 L 1041 540 L 1032 538 L 1027 538 L 1026 539 L 1017 537 L 992 537 L 991 538 L 952 538 L 949 537 L 940 539 L 939 538 L 925 538 L 924 539 L 911 539 L 910 540 L 909 539 L 904 540 L 902 539 L 889 543 L 888 542 L 878 544 L 875 546 L 874 545 L 864 548 L 863 547 L 857 550 L 835 556 L 833 558 L 832 557 L 830 559 L 829 558 L 826 560 L 825 559 L 819 563 L 818 562 L 814 565 L 813 564 L 790 574 L 767 586 L 765 586 L 761 590 L 754 592 L 752 595 L 746 597 L 745 599 L 741 600 L 740 602 L 736 603 L 735 605 L 733 605 L 726 610 L 724 610 L 723 612 L 717 615 L 705 624 L 703 624 L 702 626 L 691 634 L 689 634 L 690 635 L 689 636 L 687 636 L 661 658 L 661 660 L 647 674 L 644 675 L 634 688 L 633 687 L 631 691 L 617 707 L 615 711 L 614 710 L 613 713 L 607 721 L 605 722 L 604 726 L 602 727 L 584 754 L 583 758 L 581 759 L 574 771 L 572 777 L 569 779 L 569 781 L 555 809 L 553 811 L 553 814 L 548 822 L 549 824 L 546 827 L 547 829 L 544 833 L 537 854 L 538 855 L 536 857 L 537 858 L 534 864 L 535 865 L 530 878 L 530 882 L 527 891 L 528 892 L 526 895 L 521 919 L 521 925 L 519 932 L 520 934 L 518 938 L 518 945 L 516 951 L 517 952 L 516 955 L 517 958 L 514 974 L 515 975 L 514 980 L 514 995 L 515 996 L 514 998 L 514 1011 L 515 1012 L 514 1013 L 514 1022 L 515 1023 L 515 1032 L 516 1033 L 515 1037 L 516 1038 L 516 1048 L 518 1057 L 517 1060 L 519 1065 L 519 1070 L 521 1077 L 520 1079 L 522 1083 L 521 1084 L 523 1085 L 522 1086 L 524 1096 L 526 1099 L 525 1100 L 529 1118 L 531 1121 L 530 1122 L 532 1127 L 531 1128 L 533 1131 L 532 1132 L 535 1136 L 534 1137 L 537 1143 L 536 1144 L 540 1154 L 542 1163 L 548 1178 L 551 1182 L 550 1184 L 553 1188 L 556 1195 L 556 1198 L 561 1205 L 561 1209 L 571 1226 L 571 1228 L 579 1242 L 581 1248 L 584 1250 L 585 1254 L 587 1255 L 588 1259 L 590 1260 L 591 1264 L 601 1278 L 601 1280 L 603 1281 L 611 1293 L 613 1294 L 614 1297 L 622 1306 L 624 1310 L 625 1309 L 632 1319 L 634 1319 L 657 1343 L 662 1345 L 663 1347 L 667 1349 L 666 1350 L 669 1351 L 670 1353 L 681 1360 L 690 1369 L 699 1375 L 698 1376 L 704 1379 L 703 1380 L 706 1381 L 722 1393 L 729 1396 L 730 1398 L 737 1401 L 738 1403 L 741 1404 L 742 1406 L 746 1407 L 747 1409 L 754 1411 L 755 1413 L 793 1432 L 795 1434 L 798 1434 L 806 1439 L 808 1438 L 813 1442 L 815 1441 L 823 1446 L 824 1445 L 827 1447 L 828 1446 L 834 1450 L 835 1449 L 849 1455 L 850 1454 L 861 1458 L 862 1457 L 868 1460 L 877 1462 L 878 1461 L 881 1463 L 896 1466 L 898 1465 L 899 1467 L 901 1466 L 902 1467 L 921 1468 L 922 1469 L 929 1469 L 930 1468 L 935 1470 L 936 1469 L 981 1470 L 982 1469 L 1000 1469 L 1001 1468 L 1002 1469 L 1008 1469 L 1016 1467 L 1021 1468 L 1027 1466 L 1028 1467 L 1031 1466 L 1034 1467 L 1040 1465 L 1043 1466 L 1053 1463 L 1055 1464 L 1056 1463 L 1088 1458 L 1091 1456 L 1092 1457 L 1097 1456 L 1101 1454 L 1112 1452 L 1118 1449 L 1119 1450 L 1123 1448 L 1124 1449 L 1128 1446 L 1129 1447 L 1131 1445 L 1132 1446 L 1141 1442 L 1142 1443 L 1144 1441 L 1145 1442 L 1147 1440 L 1152 1439 L 1160 1435 L 1161 1436 L 1165 1433 L 1179 1428 L 1187 1423 L 1190 1423 L 1229 1403 L 1231 1403 L 1232 1401 L 1236 1400 L 1241 1395 L 1243 1395 L 1248 1391 L 1250 1391 L 1251 1389 L 1263 1381 L 1270 1374 L 1275 1366 L 1287 1372 L 1289 1375 L 1288 1376 L 1288 1385 L 1289 1386 L 1288 1397 L 1289 1398 L 1287 1400 L 1288 1403 L 1287 1404 L 1286 1414 L 1284 1417 L 1285 1420 L 1282 1427 L 1272 1435 L 1270 1438 L 1266 1439 L 1265 1441 L 1263 1441 L 1262 1443 L 1254 1447 L 1253 1449 L 1251 1449 L 1236 1457 L 1233 1457 L 1224 1463 L 1221 1463 L 1213 1468 L 1209 1468 L 1198 1474 L 1197 1473 L 1193 1476 L 1183 1480 L 1182 1479 L 1179 1482 L 1178 1481 L 1171 1485 L 1170 1484 L 1167 1486 L 1149 1492 L 1148 1491 L 1146 1493 L 1133 1496 L 1127 1499 L 1126 1498 L 1110 1503 L 1106 1503 L 1081 1509 L 1076 1509 L 1069 1511 L 1067 1510 L 1063 1512 L 1057 1512 L 1049 1514 L 1041 1514 L 1040 1515 L 1036 1514 L 1034 1516 L 1033 1515 L 1029 1516 L 1024 1515 L 1017 1517 L 1012 1516 L 1008 1518 L 1007 1517 L 1000 1517 L 999 1518 L 959 1518 L 958 1517 L 950 1517 L 949 1518 L 945 1516 L 944 1517 L 936 1517 L 935 1516 L 927 1516 L 926 1517 L 918 1515 L 901 1514 L 896 1512 L 891 1513 L 887 1511 L 882 1511 L 871 1508 L 870 1509 L 860 1505 L 859 1506 L 854 1504 L 853 1505 L 845 1501 L 844 1502 L 840 1500 L 839 1501 L 837 1499 L 822 1495 L 820 1493 L 819 1494 L 816 1492 L 815 1493 L 813 1491 L 800 1487 L 795 1484 L 794 1485 L 792 1483 L 779 1478 L 771 1473 L 768 1473 L 751 1464 L 747 1463 L 743 1459 L 736 1457 L 735 1455 L 729 1453 L 728 1451 L 722 1449 L 721 1447 L 715 1445 L 714 1443 L 704 1438 L 700 1434 L 694 1432 L 688 1426 L 686 1426 L 676 1418 L 674 1418 L 673 1416 L 665 1411 L 666 1410 L 663 1409 L 638 1388 L 603 1352 L 602 1353 L 598 1347 L 586 1335 L 584 1331 L 567 1310 L 565 1309 L 565 1307 L 560 1302 L 560 1300 L 546 1280 L 545 1277 L 543 1276 L 543 1274 L 538 1267 L 537 1263 L 534 1261 L 534 1259 L 530 1253 L 526 1243 L 522 1239 L 522 1237 L 515 1225 L 514 1220 L 506 1204 L 506 1201 L 504 1199 L 499 1187 L 500 1186 L 497 1183 L 497 1180 L 491 1165 L 490 1159 L 488 1157 L 489 1156 L 486 1147 L 484 1144 L 485 1141 L 481 1131 L 482 1130 L 480 1127 L 481 1126 L 478 1119 L 472 1088 L 473 1086 L 470 1078 L 471 1077 L 470 1075 L 470 1063 L 469 1062 L 469 1056 L 470 1055 L 468 1052 L 469 1051 L 469 1045 L 468 1044 L 468 1036 L 469 1035 L 467 1028 L 468 1027 L 468 966 L 469 965 L 468 960 L 470 957 L 469 956 L 470 951 L 469 947 L 472 935 L 471 932 L 472 931 L 473 916 L 475 912 L 474 910 L 480 878 L 486 858 L 485 857 L 487 854 L 488 848 L 490 846 L 489 845 L 493 833 L 495 831 L 494 830 L 496 827 L 495 826 L 497 824 L 503 807 L 512 790 L 512 788 L 518 780 L 521 771 L 524 769 L 526 762 L 529 760 L 530 755 L 533 753 L 534 748 L 536 747 L 540 739 L 542 738 L 545 731 L 547 730 L 547 727 L 549 726 L 552 720 L 559 711 L 559 709 L 563 706 L 563 704 L 569 697 L 569 695 L 571 694 L 579 682 L 580 683 L 586 673 L 587 674 L 590 668 L 607 651 L 614 642 L 636 620 L 641 617 L 645 612 L 649 610 L 654 605 L 657 604 L 656 603 L 671 593 L 670 592 L 674 590 L 677 587 L 679 587 L 680 585 L 687 580 L 689 580 L 688 579 L 689 578 L 691 578 L 710 565 L 715 563 Z M 551 469 L 548 473 L 538 480 L 534 485 L 529 488 L 524 494 L 510 506 L 496 522 L 493 523 L 484 535 L 483 534 L 482 537 L 472 548 L 470 552 L 469 551 L 468 554 L 464 557 L 452 573 L 451 572 L 449 576 L 440 586 L 438 590 L 437 589 L 431 599 L 430 598 L 429 601 L 427 602 L 426 605 L 424 606 L 423 609 L 421 610 L 420 613 L 413 622 L 413 624 L 409 627 L 409 629 L 407 630 L 407 632 L 403 636 L 403 638 L 401 639 L 399 645 L 394 650 L 394 653 L 392 654 L 377 680 L 377 682 L 373 686 L 369 697 L 363 705 L 359 717 L 352 728 L 352 731 L 346 745 L 344 747 L 345 748 L 341 756 L 342 757 L 338 763 L 339 764 L 337 767 L 338 768 L 336 770 L 328 794 L 329 795 L 326 799 L 327 800 L 323 809 L 324 810 L 321 816 L 322 817 L 319 825 L 317 836 L 315 839 L 316 840 L 314 849 L 312 852 L 313 853 L 311 863 L 309 866 L 310 870 L 308 871 L 309 873 L 305 890 L 303 909 L 301 914 L 302 915 L 301 917 L 302 920 L 299 935 L 298 957 L 297 958 L 297 963 L 298 964 L 296 967 L 297 968 L 297 976 L 296 977 L 296 986 L 297 987 L 297 993 L 296 994 L 297 1045 L 298 1046 L 298 1058 L 300 1065 L 299 1069 L 301 1075 L 300 1078 L 302 1086 L 302 1093 L 304 1099 L 303 1101 L 305 1105 L 305 1110 L 307 1116 L 306 1118 L 308 1122 L 311 1141 L 313 1144 L 312 1145 L 314 1151 L 313 1152 L 315 1155 L 321 1179 L 320 1180 L 323 1186 L 328 1206 L 330 1208 L 329 1209 L 333 1219 L 332 1220 L 334 1222 L 333 1223 L 335 1225 L 340 1242 L 342 1244 L 341 1245 L 349 1263 L 348 1264 L 351 1268 L 357 1282 L 357 1285 L 363 1294 L 363 1298 L 365 1300 L 373 1316 L 373 1318 L 377 1322 L 382 1335 L 384 1336 L 386 1341 L 388 1342 L 389 1347 L 391 1348 L 400 1363 L 400 1365 L 402 1366 L 409 1378 L 411 1379 L 411 1382 L 415 1385 L 418 1392 L 420 1393 L 431 1409 L 433 1410 L 434 1414 L 435 1413 L 445 1428 L 446 1427 L 448 1431 L 453 1436 L 455 1440 L 456 1439 L 461 1447 L 462 1446 L 468 1455 L 471 1456 L 478 1466 L 479 1465 L 484 1472 L 498 1487 L 525 1511 L 525 1513 L 531 1517 L 536 1523 L 547 1531 L 546 1532 L 553 1536 L 556 1540 L 562 1544 L 561 1545 L 573 1554 L 577 1556 L 576 1557 L 586 1563 L 591 1568 L 593 1568 L 600 1573 L 601 1575 L 603 1575 L 604 1577 L 607 1577 L 608 1579 L 622 1588 L 626 1589 L 627 1591 L 637 1596 L 638 1598 L 645 1600 L 647 1603 L 654 1605 L 656 1608 L 658 1608 L 686 1622 L 688 1624 L 694 1625 L 702 1630 L 726 1640 L 727 1639 L 730 1642 L 731 1641 L 739 1645 L 744 1646 L 746 1648 L 747 1647 L 750 1649 L 761 1652 L 763 1654 L 764 1653 L 774 1657 L 775 1656 L 777 1658 L 787 1661 L 788 1660 L 799 1665 L 800 1664 L 810 1668 L 811 1667 L 814 1669 L 815 1668 L 820 1670 L 821 1669 L 824 1671 L 825 1670 L 828 1672 L 837 1674 L 838 1673 L 845 1676 L 865 1680 L 866 1679 L 873 1682 L 878 1681 L 888 1684 L 895 1684 L 896 1685 L 899 1684 L 904 1686 L 907 1685 L 912 1687 L 917 1686 L 932 1689 L 933 1688 L 938 1688 L 939 1689 L 948 1689 L 949 1690 L 950 1689 L 956 1689 L 957 1690 L 999 1690 L 1000 1689 L 1008 1689 L 1009 1690 L 1013 1688 L 1014 1689 L 1020 1689 L 1028 1687 L 1033 1688 L 1034 1687 L 1045 1687 L 1051 1685 L 1052 1686 L 1062 1685 L 1067 1683 L 1068 1684 L 1077 1683 L 1084 1681 L 1086 1682 L 1099 1678 L 1100 1679 L 1107 1677 L 1109 1678 L 1110 1676 L 1112 1677 L 1126 1674 L 1129 1672 L 1130 1673 L 1139 1671 L 1142 1669 L 1143 1670 L 1160 1665 L 1161 1666 L 1167 1663 L 1168 1664 L 1171 1662 L 1177 1661 L 1179 1659 L 1180 1660 L 1184 1658 L 1185 1659 L 1189 1656 L 1190 1657 L 1203 1652 L 1204 1653 L 1206 1651 L 1223 1646 L 1242 1638 L 1243 1639 L 1246 1636 L 1247 1637 L 1251 1634 L 1252 1635 L 1256 1632 L 1257 1633 L 1268 1627 L 1270 1628 L 1274 1625 L 1281 1622 L 1284 1622 L 1297 1614 L 1301 1614 L 1306 1610 L 1307 1607 L 1308 1608 L 1308 1605 L 1310 1604 L 1310 1602 L 1312 1601 L 1317 1591 L 1316 1590 L 1318 1586 L 1317 1584 L 1319 1582 L 1318 1570 L 1317 1569 L 1318 1565 L 1318 1542 L 1317 1541 L 1317 1513 L 1318 1511 L 1316 1501 L 1317 1493 L 1305 1493 L 1304 1494 L 1302 1493 L 1295 1495 L 1281 1502 L 1280 1504 L 1274 1506 L 1263 1513 L 1249 1519 L 1228 1531 L 1224 1531 L 1222 1533 L 1204 1540 L 1200 1543 L 1199 1542 L 1189 1546 L 1187 1548 L 1186 1547 L 1180 1550 L 1179 1549 L 1177 1551 L 1165 1555 L 1164 1554 L 1157 1558 L 1156 1557 L 1147 1561 L 1146 1560 L 1142 1562 L 1135 1563 L 1129 1566 L 1128 1565 L 1125 1567 L 1124 1566 L 1119 1567 L 1112 1570 L 1111 1569 L 1105 1571 L 1104 1570 L 1101 1572 L 1086 1574 L 1082 1576 L 1080 1575 L 1076 1577 L 1074 1576 L 1069 1578 L 1068 1577 L 1066 1578 L 1063 1577 L 1058 1579 L 1055 1578 L 1050 1580 L 1042 1580 L 1041 1581 L 1037 1580 L 1029 1582 L 1024 1581 L 1016 1583 L 1010 1583 L 1009 1582 L 1008 1583 L 965 1583 L 964 1584 L 960 1582 L 959 1583 L 952 1583 L 951 1582 L 946 1583 L 938 1581 L 919 1580 L 914 1578 L 912 1579 L 907 1577 L 905 1578 L 890 1575 L 888 1576 L 885 1574 L 883 1575 L 882 1573 L 880 1574 L 875 1573 L 872 1571 L 871 1572 L 860 1569 L 859 1570 L 858 1568 L 857 1569 L 847 1566 L 846 1567 L 843 1565 L 842 1566 L 836 1563 L 815 1558 L 791 1550 L 788 1548 L 787 1549 L 781 1545 L 780 1546 L 769 1541 L 768 1542 L 766 1540 L 755 1536 L 751 1533 L 750 1534 L 737 1528 L 735 1526 L 732 1526 L 718 1518 L 712 1517 L 708 1514 L 696 1509 L 690 1504 L 679 1500 L 677 1497 L 670 1495 L 668 1492 L 661 1489 L 660 1487 L 657 1487 L 656 1485 L 647 1480 L 646 1478 L 641 1476 L 636 1471 L 634 1471 L 631 1468 L 627 1466 L 628 1465 L 618 1459 L 619 1458 L 613 1455 L 614 1454 L 611 1453 L 597 1440 L 592 1437 L 591 1434 L 583 1428 L 564 1409 L 559 1402 L 553 1397 L 541 1383 L 540 1380 L 539 1381 L 532 1370 L 531 1371 L 529 1367 L 515 1348 L 510 1343 L 507 1336 L 505 1335 L 505 1333 L 501 1330 L 501 1327 L 499 1326 L 499 1324 L 497 1323 L 494 1317 L 492 1316 L 489 1308 L 487 1307 L 483 1300 L 483 1298 L 480 1296 L 479 1291 L 476 1289 L 473 1281 L 469 1276 L 469 1274 L 459 1256 L 459 1252 L 454 1245 L 454 1242 L 450 1236 L 451 1235 L 442 1215 L 443 1214 L 441 1212 L 439 1207 L 440 1206 L 438 1204 L 436 1196 L 434 1194 L 435 1193 L 433 1187 L 431 1185 L 432 1184 L 429 1177 L 429 1174 L 427 1172 L 428 1171 L 425 1163 L 426 1162 L 423 1156 L 419 1136 L 417 1133 L 418 1132 L 412 1105 L 413 1103 L 411 1099 L 411 1093 L 409 1089 L 410 1088 L 409 1086 L 410 1083 L 408 1078 L 408 1071 L 407 1070 L 406 1050 L 404 1042 L 405 1037 L 404 1036 L 404 1026 L 403 1025 L 404 1024 L 404 1016 L 403 1015 L 403 1003 L 404 1002 L 403 998 L 403 973 L 404 972 L 403 970 L 403 959 L 404 958 L 404 952 L 403 951 L 405 947 L 404 946 L 405 932 L 406 931 L 405 928 L 407 923 L 407 916 L 409 911 L 408 906 L 410 902 L 414 876 L 416 873 L 415 872 L 423 840 L 426 833 L 425 832 L 428 828 L 427 827 L 433 809 L 435 807 L 434 806 L 438 799 L 437 798 L 448 773 L 448 770 L 452 765 L 452 762 L 460 748 L 460 746 L 464 740 L 464 738 L 472 724 L 474 718 L 477 716 L 477 714 L 489 694 L 491 693 L 491 691 L 493 690 L 493 688 L 495 687 L 495 685 L 505 672 L 505 670 L 507 669 L 525 644 L 542 624 L 547 620 L 561 603 L 563 603 L 581 585 L 581 583 L 594 573 L 593 572 L 599 568 L 603 563 L 610 559 L 609 558 L 614 555 L 623 547 L 626 546 L 625 545 L 639 536 L 638 535 L 643 533 L 642 532 L 643 531 L 645 531 L 662 518 L 664 518 L 663 517 L 664 516 L 666 516 L 667 514 L 669 514 L 673 510 L 676 510 L 677 508 L 686 503 L 687 501 L 689 501 L 692 498 L 700 495 L 702 492 L 708 490 L 709 488 L 716 486 L 718 483 L 724 481 L 729 477 L 733 477 L 743 471 L 746 471 L 751 467 L 753 468 L 758 464 L 760 465 L 762 463 L 772 460 L 774 458 L 775 459 L 781 456 L 782 457 L 791 452 L 792 453 L 799 450 L 800 451 L 804 448 L 805 449 L 816 445 L 832 441 L 833 442 L 838 439 L 839 440 L 845 438 L 846 439 L 847 437 L 848 438 L 864 434 L 875 433 L 879 431 L 881 432 L 889 430 L 896 430 L 905 428 L 908 429 L 914 427 L 923 427 L 924 426 L 928 427 L 929 426 L 936 426 L 945 424 L 946 425 L 954 425 L 955 424 L 964 424 L 966 425 L 972 423 L 973 424 L 1018 424 L 1019 423 L 1023 424 L 1024 423 L 1029 425 L 1030 424 L 1039 424 L 1040 425 L 1046 425 L 1047 424 L 1050 426 L 1051 425 L 1054 426 L 1058 425 L 1064 427 L 1071 427 L 1076 429 L 1079 428 L 1080 429 L 1103 432 L 1126 437 L 1129 439 L 1130 438 L 1133 440 L 1134 439 L 1147 444 L 1148 443 L 1152 445 L 1153 444 L 1157 447 L 1158 446 L 1162 448 L 1163 447 L 1165 449 L 1182 454 L 1210 465 L 1217 469 L 1220 469 L 1229 475 L 1233 475 L 1237 478 L 1253 485 L 1257 489 L 1259 489 L 1271 496 L 1277 498 L 1278 500 L 1288 505 L 1289 507 L 1293 508 L 1294 510 L 1298 511 L 1299 513 L 1303 514 L 1304 516 L 1307 516 L 1308 518 L 1310 518 L 1311 520 L 1317 524 L 1319 524 L 1322 528 L 1324 528 L 1330 533 L 1332 533 L 1333 534 L 1332 535 L 1334 535 L 1337 537 L 1336 538 L 1340 539 L 1341 541 L 1361 556 L 1364 560 L 1368 562 L 1371 566 L 1380 572 L 1381 575 L 1387 579 L 1397 588 L 1398 591 L 1405 596 L 1417 611 L 1423 616 L 1425 620 L 1426 619 L 1431 627 L 1432 626 L 1435 631 L 1458 660 L 1458 662 L 1460 663 L 1465 670 L 1465 672 L 1467 673 L 1467 675 L 1469 676 L 1478 690 L 1479 694 L 1484 699 L 1485 704 L 1488 706 L 1489 711 L 1492 713 L 1495 721 L 1498 724 L 1498 726 L 1506 740 L 1507 746 L 1509 748 L 1513 760 L 1512 761 L 1515 766 L 1514 767 L 1516 769 L 1517 775 L 1519 777 L 1518 778 L 1523 791 L 1522 792 L 1524 794 L 1525 800 L 1527 802 L 1526 803 L 1534 826 L 1533 827 L 1537 834 L 1536 835 L 1538 839 L 1537 840 L 1540 844 L 1539 845 L 1544 862 L 1546 865 L 1545 866 L 1548 874 L 1549 881 L 1551 884 L 1550 885 L 1553 895 L 1552 896 L 1554 899 L 1556 913 L 1558 917 L 1557 918 L 1559 926 L 1558 928 L 1561 940 L 1560 943 L 1563 954 L 1562 955 L 1563 959 L 1562 964 L 1564 973 L 1564 979 L 1563 980 L 1564 981 L 1564 993 L 1565 994 L 1565 1006 L 1564 1007 L 1565 1008 L 1565 1028 L 1566 1029 L 1566 1171 L 1565 1172 L 1565 1179 L 1566 1180 L 1566 1214 L 1567 1215 L 1567 1222 L 1566 1223 L 1566 1347 L 1567 1348 L 1567 1478 L 1566 1479 L 1566 1488 L 1567 1489 L 1567 1529 L 1568 1530 L 1568 1535 L 1567 1536 L 1568 1867 L 1584 1867 L 1585 1868 L 1663 1867 L 1668 1862 L 1669 1859 L 1669 1853 L 1668 1852 L 1669 1851 L 1669 1732 L 1670 1731 L 1670 1421 L 1669 1420 L 1669 1408 L 1670 1407 L 1670 1346 L 1671 1345 L 1671 1328 L 1670 1327 L 1670 1109 L 1671 1108 L 1670 1043 L 1671 1040 L 1669 1032 L 1670 1031 L 1670 1017 L 1669 1016 L 1669 1007 L 1670 1006 L 1668 1001 L 1669 1000 L 1669 992 L 1668 991 L 1668 984 L 1669 983 L 1667 979 L 1668 978 L 1668 972 L 1667 971 L 1667 966 L 1668 965 L 1666 962 L 1667 957 L 1665 948 L 1666 947 L 1665 942 L 1666 938 L 1664 931 L 1665 927 L 1663 921 L 1663 912 L 1662 911 L 1663 908 L 1661 903 L 1661 896 L 1660 895 L 1661 892 L 1659 887 L 1658 874 L 1656 870 L 1657 869 L 1655 861 L 1656 859 L 1654 855 L 1654 850 L 1649 825 L 1647 822 L 1648 821 L 1646 815 L 1647 814 L 1644 809 L 1645 808 L 1641 792 L 1636 780 L 1637 779 L 1635 777 L 1632 767 L 1630 765 L 1631 764 L 1627 756 L 1628 755 L 1625 752 L 1626 750 L 1624 748 L 1617 730 L 1613 724 L 1613 720 L 1611 718 L 1595 686 L 1595 684 L 1592 681 L 1590 675 L 1583 665 L 1582 661 L 1579 659 L 1579 657 L 1574 650 L 1573 646 L 1571 645 L 1552 615 L 1550 614 L 1550 612 L 1530 586 L 1529 583 L 1528 584 L 1525 578 L 1524 579 L 1521 573 L 1520 574 L 1517 568 L 1503 554 L 1499 547 L 1496 546 L 1487 534 L 1462 509 L 1452 501 L 1451 498 L 1438 488 L 1433 482 L 1428 479 L 1420 470 L 1413 466 L 1414 465 L 1411 464 L 1401 456 L 1399 453 L 1396 452 L 1388 445 L 1386 445 L 1385 444 L 1386 443 L 1384 443 L 1379 438 L 1371 434 L 1372 433 L 1370 433 L 1366 429 L 1363 429 L 1362 427 L 1360 427 L 1359 425 L 1350 420 L 1349 418 L 1346 418 L 1345 416 L 1338 413 L 1337 411 L 1316 399 L 1310 397 L 1309 395 L 1292 387 L 1287 383 L 1274 378 L 1268 374 L 1266 375 L 1254 368 L 1252 369 L 1248 366 L 1220 356 L 1218 354 L 1217 355 L 1214 353 L 1213 354 L 1211 352 L 1210 353 L 1208 351 L 1207 352 L 1205 350 L 1204 351 L 1202 349 L 1201 350 L 1199 348 L 1198 349 L 1194 346 L 1193 347 L 1189 345 L 1188 346 L 1184 343 L 1183 344 L 1170 339 L 1167 340 L 1164 338 L 1134 331 L 1133 332 L 1132 330 L 1128 331 L 1127 329 L 1123 330 L 1122 328 L 1118 329 L 1117 327 L 1115 328 L 1111 326 L 1109 327 L 1099 324 L 1097 325 L 1096 324 L 1090 324 L 1086 322 L 1085 323 L 1075 322 L 1070 320 L 1067 321 L 1051 318 L 1046 319 L 1038 317 L 1037 318 L 1031 318 L 1030 317 L 1023 317 L 1022 318 L 1019 316 L 1018 317 L 1006 317 L 1005 316 L 964 317 L 963 316 L 958 318 L 957 317 L 951 317 L 950 318 L 944 318 L 943 317 L 940 319 L 939 318 L 934 318 L 933 319 L 923 319 L 922 320 L 913 320 L 912 321 L 903 321 L 902 322 L 899 321 L 890 324 L 889 323 L 826 335 L 825 334 L 820 337 L 819 336 L 814 338 L 810 338 L 806 340 L 795 342 L 789 345 L 788 344 L 770 350 L 769 349 L 766 351 L 755 354 L 753 356 L 752 355 L 744 359 L 729 364 L 725 367 L 723 366 L 721 368 L 708 373 L 698 379 L 695 379 L 666 394 L 664 394 L 660 398 L 651 401 L 650 403 L 644 405 L 643 407 L 639 409 L 637 409 L 636 411 L 632 412 L 631 414 L 626 416 L 616 423 L 614 423 L 613 425 L 607 428 L 595 437 L 593 437 L 592 439 L 584 444 L 583 446 L 581 446 Z M 591 478 L 598 471 L 604 468 L 611 463 L 612 461 L 614 461 L 620 456 L 622 456 L 623 454 L 637 445 L 639 445 L 640 443 L 646 440 L 647 438 L 649 438 L 656 434 L 657 432 L 659 432 L 668 427 L 669 425 L 678 422 L 680 419 L 682 419 L 706 407 L 708 405 L 712 405 L 721 399 L 724 399 L 735 394 L 737 392 L 738 393 L 747 388 L 748 389 L 755 385 L 756 386 L 759 384 L 760 385 L 766 381 L 767 382 L 776 379 L 778 377 L 779 378 L 781 376 L 782 377 L 784 375 L 785 376 L 789 374 L 790 375 L 794 372 L 795 373 L 799 371 L 800 372 L 806 369 L 810 369 L 815 367 L 816 368 L 821 365 L 822 366 L 827 364 L 831 364 L 838 361 L 839 362 L 845 360 L 846 361 L 847 359 L 848 360 L 864 356 L 894 352 L 895 351 L 901 351 L 902 350 L 904 351 L 910 349 L 913 350 L 924 347 L 928 348 L 929 347 L 940 347 L 941 346 L 945 347 L 946 346 L 956 346 L 957 345 L 964 345 L 965 346 L 975 344 L 977 345 L 996 345 L 999 344 L 1008 346 L 1009 345 L 1020 345 L 1021 346 L 1026 346 L 1027 345 L 1030 347 L 1031 346 L 1036 346 L 1037 347 L 1047 347 L 1048 348 L 1058 348 L 1059 349 L 1062 348 L 1067 350 L 1070 349 L 1075 351 L 1088 352 L 1098 355 L 1100 354 L 1131 360 L 1135 362 L 1142 363 L 1145 365 L 1146 364 L 1151 366 L 1152 365 L 1155 367 L 1173 371 L 1176 373 L 1179 372 L 1182 374 L 1192 376 L 1195 378 L 1196 377 L 1198 379 L 1199 378 L 1208 383 L 1209 382 L 1212 384 L 1213 383 L 1215 385 L 1235 392 L 1239 395 L 1240 394 L 1251 400 L 1252 399 L 1260 404 L 1263 404 L 1285 416 L 1298 421 L 1300 424 L 1302 424 L 1310 429 L 1316 431 L 1317 433 L 1321 434 L 1322 436 L 1326 437 L 1329 440 L 1331 440 L 1332 442 L 1339 445 L 1340 447 L 1343 448 L 1358 459 L 1360 459 L 1361 461 L 1369 466 L 1370 468 L 1375 470 L 1374 471 L 1388 480 L 1387 481 L 1390 482 L 1414 502 L 1415 505 L 1422 510 L 1442 530 L 1445 535 L 1448 536 L 1454 545 L 1458 547 L 1468 560 L 1471 561 L 1475 567 L 1480 571 L 1483 576 L 1490 583 L 1492 587 L 1496 590 L 1506 602 L 1507 605 L 1508 604 L 1515 615 L 1516 614 L 1518 619 L 1519 618 L 1521 622 L 1523 623 L 1524 627 L 1525 626 L 1526 627 L 1526 629 L 1532 636 L 1532 638 L 1534 639 L 1544 655 L 1546 656 L 1549 663 L 1551 664 L 1552 668 L 1554 669 L 1555 674 L 1558 676 L 1562 686 L 1565 689 L 1565 691 L 1577 713 L 1577 717 L 1582 724 L 1582 727 L 1586 733 L 1586 736 L 1589 740 L 1588 741 L 1591 745 L 1590 746 L 1593 750 L 1592 752 L 1595 756 L 1594 757 L 1596 759 L 1599 769 L 1601 771 L 1600 772 L 1605 784 L 1604 785 L 1606 787 L 1605 788 L 1607 790 L 1609 799 L 1611 801 L 1610 802 L 1613 808 L 1612 809 L 1616 820 L 1615 821 L 1617 824 L 1616 825 L 1618 828 L 1617 829 L 1619 832 L 1620 836 L 1619 837 L 1621 840 L 1625 858 L 1624 859 L 1626 862 L 1626 866 L 1628 870 L 1627 872 L 1629 878 L 1630 889 L 1632 893 L 1631 894 L 1632 902 L 1634 906 L 1633 907 L 1634 909 L 1633 912 L 1635 917 L 1635 925 L 1637 930 L 1636 934 L 1637 935 L 1638 956 L 1639 957 L 1639 962 L 1638 963 L 1640 966 L 1639 967 L 1639 972 L 1640 973 L 1640 980 L 1639 981 L 1640 982 L 1640 995 L 1641 996 L 1641 1014 L 1640 1015 L 1641 1017 L 1641 1097 L 1640 1098 L 1640 1110 L 1641 1111 L 1641 1333 L 1640 1334 L 1641 1336 L 1640 1340 L 1640 1572 L 1641 1573 L 1641 1594 L 1640 1595 L 1640 1687 L 1639 1688 L 1639 1703 L 1640 1704 L 1640 1837 L 1639 1838 L 1598 1838 L 1597 1837 L 1597 1770 L 1596 1769 L 1596 1699 L 1597 1698 L 1597 1692 L 1596 1691 L 1596 1665 L 1595 1664 L 1595 1659 L 1596 1658 L 1596 1592 L 1595 1591 L 1595 1526 L 1596 1525 L 1596 1520 L 1595 1519 L 1595 1494 L 1594 1493 L 1594 1488 L 1595 1487 L 1595 1424 L 1594 1423 L 1594 1354 L 1595 1353 L 1595 1348 L 1594 1347 L 1594 1322 L 1593 1321 L 1593 1315 L 1594 1314 L 1593 1179 L 1594 1175 L 1593 1174 L 1593 1150 L 1592 1149 L 1592 1144 L 1593 1143 L 1593 1071 L 1592 1070 L 1592 1007 L 1593 1006 L 1593 997 L 1592 996 L 1592 973 L 1591 972 L 1592 954 L 1591 953 L 1591 941 L 1590 940 L 1591 939 L 1590 934 L 1591 929 L 1589 921 L 1590 918 L 1587 908 L 1588 905 L 1586 897 L 1587 895 L 1585 891 L 1584 880 L 1579 859 L 1580 858 L 1578 855 L 1579 854 L 1577 851 L 1578 850 L 1575 845 L 1576 844 L 1574 841 L 1575 840 L 1573 837 L 1574 836 L 1566 812 L 1566 809 L 1558 787 L 1555 782 L 1556 781 L 1554 779 L 1550 770 L 1550 767 L 1547 763 L 1547 760 L 1540 749 L 1540 745 L 1538 743 L 1527 721 L 1527 719 L 1524 716 L 1519 705 L 1517 703 L 1515 697 L 1513 696 L 1511 690 L 1509 689 L 1508 685 L 1506 684 L 1502 677 L 1502 675 L 1500 674 L 1497 669 L 1497 667 L 1495 666 L 1490 657 L 1483 648 L 1483 646 L 1481 645 L 1473 634 L 1473 632 L 1472 633 L 1471 632 L 1471 630 L 1468 627 L 1467 624 L 1466 625 L 1460 615 L 1459 616 L 1451 604 L 1450 605 L 1447 600 L 1440 593 L 1436 587 L 1434 587 L 1426 577 L 1412 563 L 1404 557 L 1395 547 L 1388 543 L 1389 542 L 1383 539 L 1384 538 L 1381 537 L 1361 520 L 1353 515 L 1354 514 L 1351 513 L 1328 495 L 1326 495 L 1325 494 L 1326 493 L 1319 490 L 1316 486 L 1314 486 L 1303 478 L 1297 476 L 1295 473 L 1286 470 L 1282 466 L 1280 466 L 1258 455 L 1256 453 L 1252 453 L 1241 446 L 1238 446 L 1226 440 L 1198 429 L 1197 430 L 1195 428 L 1187 426 L 1184 424 L 1183 425 L 1181 423 L 1128 408 L 1119 407 L 1116 405 L 1112 406 L 1111 404 L 1107 405 L 1103 403 L 1093 401 L 1073 399 L 1067 397 L 1064 398 L 1058 396 L 1057 397 L 1053 396 L 1049 397 L 1047 395 L 1046 396 L 1041 395 L 1036 396 L 1035 395 L 1021 395 L 1020 394 L 979 394 L 978 395 L 964 395 L 963 394 L 958 396 L 957 395 L 938 396 L 937 397 L 932 396 L 918 399 L 915 398 L 914 399 L 905 399 L 900 401 L 897 400 L 885 403 L 883 402 L 876 404 L 870 404 L 830 413 L 829 412 L 826 414 L 825 413 L 822 415 L 798 421 L 796 423 L 795 422 L 791 424 L 790 423 L 788 425 L 770 430 L 763 434 L 762 433 L 754 437 L 753 436 L 750 439 L 749 438 L 739 442 L 735 445 L 733 444 L 726 449 L 724 448 L 713 455 L 707 456 L 700 460 L 699 462 L 694 463 L 693 465 L 681 471 L 677 475 L 670 478 L 666 482 L 664 482 L 641 498 L 639 498 L 640 499 L 635 501 L 636 502 L 631 504 L 632 505 L 627 507 L 619 515 L 610 520 L 611 521 L 607 523 L 602 528 L 598 530 L 599 531 L 594 534 L 591 538 L 572 553 L 572 555 L 564 561 L 544 583 L 541 584 L 535 592 L 530 596 L 527 601 L 522 605 L 518 612 L 517 611 L 515 615 L 499 635 L 496 637 L 495 640 L 493 641 L 491 646 L 490 645 L 488 650 L 487 649 L 486 653 L 479 660 L 477 665 L 472 672 L 470 673 L 470 675 L 466 681 L 464 682 L 464 685 L 462 686 L 457 695 L 455 696 L 455 699 L 453 700 L 447 711 L 447 713 L 444 715 L 437 732 L 426 751 L 423 762 L 419 767 L 420 768 L 417 772 L 418 774 L 415 778 L 410 791 L 411 792 L 407 798 L 408 799 L 403 811 L 404 812 L 402 814 L 403 815 L 401 817 L 402 818 L 399 822 L 400 823 L 398 827 L 399 828 L 393 843 L 394 844 L 392 849 L 393 850 L 391 853 L 388 869 L 386 872 L 387 873 L 385 879 L 386 881 L 384 885 L 382 901 L 380 905 L 381 906 L 379 915 L 380 918 L 378 923 L 377 941 L 375 948 L 376 949 L 376 954 L 375 955 L 375 960 L 376 961 L 374 964 L 375 965 L 374 1021 L 375 1022 L 375 1035 L 376 1036 L 375 1037 L 375 1042 L 376 1043 L 375 1048 L 377 1050 L 376 1051 L 377 1064 L 379 1070 L 378 1073 L 380 1078 L 379 1079 L 380 1081 L 379 1084 L 381 1089 L 381 1094 L 383 1098 L 382 1100 L 388 1127 L 387 1128 L 389 1131 L 390 1136 L 389 1137 L 392 1142 L 391 1143 L 393 1146 L 392 1147 L 394 1150 L 393 1151 L 398 1167 L 397 1168 L 400 1174 L 399 1175 L 401 1178 L 403 1187 L 407 1197 L 406 1198 L 408 1200 L 412 1215 L 414 1218 L 416 1226 L 418 1228 L 417 1229 L 423 1244 L 426 1248 L 425 1250 L 429 1255 L 429 1258 L 433 1264 L 434 1270 L 436 1272 L 445 1292 L 449 1296 L 452 1305 L 454 1306 L 456 1311 L 458 1312 L 459 1317 L 461 1318 L 462 1322 L 464 1323 L 470 1334 L 483 1352 L 483 1354 L 484 1353 L 488 1361 L 490 1362 L 499 1375 L 502 1377 L 504 1382 L 505 1381 L 507 1385 L 518 1397 L 520 1401 L 525 1405 L 527 1409 L 533 1414 L 540 1423 L 542 1423 L 562 1443 L 561 1444 L 578 1458 L 579 1459 L 578 1460 L 588 1467 L 587 1468 L 591 1470 L 594 1474 L 601 1478 L 600 1479 L 606 1482 L 605 1483 L 619 1492 L 618 1493 L 623 1495 L 622 1496 L 629 1499 L 630 1501 L 638 1506 L 639 1508 L 642 1508 L 643 1510 L 649 1513 L 650 1515 L 653 1515 L 654 1517 L 661 1520 L 662 1522 L 666 1523 L 667 1525 L 671 1526 L 672 1528 L 676 1529 L 677 1531 L 683 1533 L 684 1535 L 694 1540 L 698 1541 L 702 1545 L 716 1550 L 724 1555 L 727 1555 L 734 1560 L 737 1560 L 743 1564 L 744 1563 L 749 1566 L 750 1565 L 752 1567 L 764 1571 L 766 1573 L 767 1572 L 778 1577 L 779 1576 L 785 1580 L 786 1579 L 802 1585 L 805 1585 L 809 1587 L 810 1586 L 814 1589 L 815 1588 L 821 1591 L 822 1590 L 830 1593 L 831 1592 L 834 1594 L 859 1599 L 864 1601 L 868 1601 L 871 1603 L 875 1602 L 879 1604 L 901 1607 L 906 1609 L 909 1608 L 915 1610 L 918 1609 L 919 1610 L 942 1611 L 943 1612 L 949 1612 L 950 1611 L 953 1613 L 954 1612 L 988 1612 L 989 1613 L 994 1611 L 995 1612 L 1018 1611 L 1019 1610 L 1024 1611 L 1026 1609 L 1027 1610 L 1039 1609 L 1040 1608 L 1047 1608 L 1052 1606 L 1054 1607 L 1055 1606 L 1089 1601 L 1092 1599 L 1093 1600 L 1112 1595 L 1113 1596 L 1118 1593 L 1119 1594 L 1124 1592 L 1128 1592 L 1154 1584 L 1155 1585 L 1158 1583 L 1174 1578 L 1175 1579 L 1180 1576 L 1198 1570 L 1199 1571 L 1201 1569 L 1202 1570 L 1207 1567 L 1208 1568 L 1217 1563 L 1218 1564 L 1224 1561 L 1225 1562 L 1228 1559 L 1229 1560 L 1237 1556 L 1242 1555 L 1244 1553 L 1245 1554 L 1256 1549 L 1257 1550 L 1260 1547 L 1261 1548 L 1265 1545 L 1266 1546 L 1279 1540 L 1280 1541 L 1281 1540 L 1283 1543 L 1286 1555 L 1285 1556 L 1287 1559 L 1288 1564 L 1287 1567 L 1288 1572 L 1286 1575 L 1287 1576 L 1285 1578 L 1286 1579 L 1283 1583 L 1284 1585 L 1278 1591 L 1272 1593 L 1269 1596 L 1267 1596 L 1245 1607 L 1243 1609 L 1241 1608 L 1235 1612 L 1216 1619 L 1214 1621 L 1213 1620 L 1210 1622 L 1209 1621 L 1207 1623 L 1183 1631 L 1182 1630 L 1175 1634 L 1174 1633 L 1170 1635 L 1169 1634 L 1163 1637 L 1162 1636 L 1159 1638 L 1141 1642 L 1138 1644 L 1135 1643 L 1132 1645 L 1131 1644 L 1130 1646 L 1129 1645 L 1114 1648 L 1110 1650 L 1108 1649 L 1107 1650 L 1096 1651 L 1092 1653 L 1090 1652 L 1076 1655 L 1074 1654 L 1069 1656 L 1066 1655 L 1061 1657 L 1039 1658 L 1032 1660 L 1031 1659 L 1026 1660 L 1021 1659 L 1013 1661 L 1012 1660 L 972 1661 L 971 1660 L 954 1660 L 953 1659 L 952 1660 L 947 1660 L 946 1659 L 937 1659 L 936 1658 L 935 1659 L 930 1658 L 926 1659 L 924 1657 L 920 1658 L 919 1657 L 909 1657 L 908 1656 L 905 1657 L 900 1655 L 887 1654 L 882 1652 L 880 1653 L 837 1644 L 836 1645 L 835 1643 L 834 1644 L 820 1640 L 819 1641 L 816 1639 L 815 1640 L 812 1638 L 811 1639 L 808 1637 L 807 1638 L 804 1636 L 787 1631 L 786 1632 L 783 1630 L 757 1622 L 754 1620 L 753 1621 L 751 1619 L 741 1616 L 737 1613 L 735 1614 L 725 1608 L 724 1609 L 719 1606 L 718 1607 L 704 1599 L 698 1598 L 696 1596 L 670 1583 L 668 1583 L 664 1579 L 654 1575 L 653 1573 L 648 1572 L 647 1570 L 642 1568 L 641 1566 L 636 1565 L 635 1563 L 631 1562 L 630 1560 L 624 1557 L 623 1555 L 620 1555 L 619 1553 L 617 1553 L 616 1551 L 614 1551 L 613 1549 L 607 1546 L 608 1545 L 606 1545 L 605 1543 L 603 1543 L 595 1538 L 594 1536 L 578 1524 L 574 1522 L 575 1521 L 572 1520 L 562 1511 L 557 1508 L 558 1507 L 550 1502 L 545 1496 L 539 1492 L 538 1489 L 521 1472 L 518 1471 L 512 1462 L 503 1454 L 499 1447 L 498 1448 L 493 1440 L 492 1441 L 490 1437 L 481 1427 L 477 1420 L 476 1421 L 474 1417 L 462 1401 L 460 1400 L 459 1396 L 458 1397 L 457 1394 L 452 1389 L 449 1382 L 447 1381 L 439 1368 L 437 1367 L 437 1364 L 435 1363 L 435 1361 L 433 1360 L 430 1353 L 428 1352 L 425 1345 L 423 1344 L 420 1339 L 419 1335 L 417 1334 L 415 1329 L 413 1328 L 411 1321 L 407 1317 L 404 1308 L 399 1302 L 399 1300 L 389 1282 L 388 1276 L 383 1268 L 383 1265 L 379 1259 L 379 1256 L 376 1252 L 376 1249 L 373 1245 L 371 1238 L 368 1234 L 369 1233 L 365 1225 L 366 1224 L 362 1217 L 359 1206 L 356 1200 L 357 1199 L 355 1197 L 354 1194 L 355 1193 L 353 1191 L 354 1190 L 352 1188 L 353 1187 L 351 1185 L 348 1172 L 345 1166 L 346 1165 L 342 1152 L 343 1151 L 341 1148 L 340 1140 L 337 1132 L 338 1128 L 336 1127 L 337 1123 L 335 1122 L 336 1120 L 332 1101 L 332 1095 L 330 1090 L 331 1089 L 329 1079 L 330 1075 L 328 1073 L 329 1072 L 328 1069 L 329 1065 L 327 1063 L 328 1062 L 327 1058 L 328 1053 L 326 1044 L 326 1039 L 327 1038 L 325 1033 L 326 1032 L 326 1023 L 325 1022 L 325 981 L 326 980 L 326 972 L 325 971 L 326 970 L 326 960 L 328 951 L 327 950 L 328 935 L 329 934 L 328 930 L 330 928 L 329 925 L 331 916 L 330 913 L 332 908 L 331 905 L 334 897 L 333 896 L 334 888 L 343 846 L 342 845 L 344 842 L 346 832 L 348 829 L 347 826 L 350 822 L 349 821 L 352 814 L 351 813 L 355 806 L 354 805 L 357 800 L 356 799 L 360 790 L 359 789 L 361 787 L 360 786 L 364 779 L 363 778 L 365 776 L 369 766 L 368 765 L 370 763 L 376 747 L 379 743 L 379 739 L 385 730 L 385 726 L 387 724 L 396 704 L 399 701 L 402 693 L 405 690 L 408 683 L 410 682 L 411 678 L 415 671 L 417 670 L 417 668 L 420 664 L 420 662 L 422 661 L 425 656 L 425 654 L 427 653 L 430 647 L 432 646 L 432 644 L 434 643 L 434 641 L 440 632 L 445 627 L 446 623 L 453 616 L 453 614 L 456 611 L 458 607 L 459 608 L 460 605 L 462 604 L 472 589 L 473 590 L 474 587 L 478 584 L 479 581 L 485 575 L 487 571 L 492 567 L 495 562 L 496 563 L 504 552 L 507 551 L 513 543 L 525 531 L 540 519 L 544 514 L 548 512 L 566 496 L 569 495 L 568 494 L 574 491 L 573 490 Z M 434 373 L 435 374 L 423 384 L 411 396 L 403 406 L 402 405 L 400 409 L 395 413 L 391 420 L 390 419 L 383 430 L 373 440 L 370 445 L 367 446 L 363 452 L 356 458 L 348 469 L 347 468 L 343 475 L 335 482 L 334 485 L 324 496 L 318 505 L 315 507 L 314 510 L 302 525 L 302 527 L 300 528 L 297 532 L 297 534 L 295 535 L 290 542 L 290 544 L 286 547 L 284 553 L 282 554 L 282 556 L 280 557 L 268 577 L 266 578 L 263 586 L 261 587 L 256 597 L 254 598 L 253 603 L 250 605 L 249 610 L 245 614 L 239 629 L 235 633 L 234 639 L 224 656 L 224 659 L 220 665 L 217 676 L 213 682 L 214 683 L 211 686 L 212 688 L 209 691 L 210 693 L 205 702 L 206 703 L 202 710 L 200 718 L 198 721 L 199 722 L 195 728 L 196 729 L 193 734 L 194 735 L 186 757 L 186 760 L 184 764 L 185 765 L 182 769 L 183 770 L 179 781 L 176 793 L 177 794 L 175 797 L 173 808 L 171 811 L 172 812 L 170 821 L 168 824 L 169 825 L 163 851 L 164 853 L 162 857 L 163 859 L 161 863 L 156 903 L 155 904 L 155 913 L 154 914 L 155 917 L 153 919 L 154 920 L 153 933 L 152 934 L 153 939 L 150 955 L 151 956 L 151 963 L 150 964 L 150 972 L 151 973 L 149 977 L 150 978 L 150 1003 L 149 1004 L 150 1026 L 149 1027 L 150 1028 L 150 1037 L 151 1038 L 151 1053 L 153 1061 L 152 1062 L 153 1066 L 152 1071 L 154 1073 L 153 1074 L 154 1078 L 153 1081 L 155 1087 L 154 1090 L 156 1096 L 155 1099 L 158 1108 L 157 1109 L 158 1112 L 157 1114 L 159 1119 L 158 1121 L 160 1126 L 160 1131 L 162 1138 L 161 1140 L 164 1147 L 163 1149 L 170 1181 L 169 1182 L 171 1185 L 173 1194 L 172 1195 L 175 1200 L 174 1201 L 180 1222 L 179 1223 L 182 1229 L 183 1236 L 199 1286 L 201 1289 L 205 1302 L 207 1304 L 206 1305 L 212 1320 L 215 1324 L 214 1326 L 216 1328 L 220 1339 L 224 1345 L 224 1348 L 228 1354 L 228 1357 L 245 1390 L 245 1392 L 249 1396 L 252 1405 L 255 1408 L 260 1418 L 262 1419 L 263 1424 L 265 1425 L 266 1429 L 271 1434 L 271 1437 L 273 1438 L 273 1440 L 275 1441 L 280 1450 L 282 1451 L 282 1453 L 284 1454 L 284 1457 L 286 1458 L 286 1460 L 288 1461 L 290 1466 L 294 1469 L 296 1474 L 301 1479 L 301 1481 L 306 1486 L 306 1488 L 324 1512 L 332 1521 L 334 1525 L 335 1524 L 338 1529 L 342 1532 L 346 1539 L 347 1538 L 350 1543 L 355 1547 L 363 1558 L 394 1589 L 405 1598 L 407 1602 L 422 1614 L 423 1617 L 433 1624 L 434 1627 L 443 1633 L 442 1634 L 446 1636 L 452 1642 L 456 1644 L 455 1645 L 467 1653 L 466 1654 L 477 1661 L 476 1662 L 479 1663 L 480 1665 L 483 1666 L 491 1672 L 492 1674 L 496 1675 L 501 1680 L 503 1680 L 504 1681 L 503 1682 L 505 1682 L 515 1690 L 521 1693 L 520 1694 L 522 1694 L 523 1696 L 525 1696 L 529 1700 L 532 1700 L 533 1702 L 539 1706 L 543 1707 L 548 1712 L 552 1713 L 557 1716 L 558 1718 L 563 1719 L 564 1721 L 569 1723 L 570 1725 L 576 1727 L 577 1729 L 584 1731 L 585 1733 L 599 1739 L 603 1743 L 621 1752 L 625 1752 L 645 1763 L 647 1762 L 654 1767 L 655 1766 L 660 1769 L 661 1768 L 665 1771 L 680 1777 L 681 1776 L 685 1779 L 686 1778 L 693 1782 L 694 1781 L 701 1785 L 702 1784 L 704 1786 L 712 1788 L 714 1790 L 715 1789 L 717 1791 L 718 1790 L 727 1793 L 729 1795 L 730 1794 L 745 1800 L 746 1799 L 763 1804 L 766 1806 L 769 1805 L 775 1808 L 798 1813 L 801 1815 L 802 1814 L 807 1816 L 808 1815 L 811 1817 L 835 1823 L 836 1822 L 841 1825 L 842 1824 L 849 1826 L 851 1825 L 852 1827 L 854 1826 L 872 1830 L 888 1831 L 893 1833 L 894 1832 L 897 1833 L 900 1832 L 905 1834 L 909 1833 L 910 1834 L 932 1835 L 933 1836 L 938 1836 L 939 1835 L 944 1837 L 945 1836 L 958 1836 L 959 1837 L 998 1837 L 999 1836 L 1007 1836 L 1008 1837 L 1012 1835 L 1013 1836 L 1020 1836 L 1021 1835 L 1026 1835 L 1027 1836 L 1031 1834 L 1032 1835 L 1047 1834 L 1048 1833 L 1052 1834 L 1063 1831 L 1064 1832 L 1076 1831 L 1077 1830 L 1092 1829 L 1096 1827 L 1101 1828 L 1105 1826 L 1123 1824 L 1132 1821 L 1134 1822 L 1150 1818 L 1151 1819 L 1161 1815 L 1162 1816 L 1173 1813 L 1174 1814 L 1179 1811 L 1180 1812 L 1212 1803 L 1213 1804 L 1222 1800 L 1225 1800 L 1232 1797 L 1233 1798 L 1237 1795 L 1238 1796 L 1245 1793 L 1246 1794 L 1248 1792 L 1249 1793 L 1251 1791 L 1260 1788 L 1261 1789 L 1263 1787 L 1271 1785 L 1273 1783 L 1274 1784 L 1288 1778 L 1289 1779 L 1292 1776 L 1293 1777 L 1301 1773 L 1306 1772 L 1306 1770 L 1308 1769 L 1308 1767 L 1312 1763 L 1312 1761 L 1317 1754 L 1316 1752 L 1317 1751 L 1317 1741 L 1318 1740 L 1318 1732 L 1317 1731 L 1319 1722 L 1318 1709 L 1317 1708 L 1318 1706 L 1317 1669 L 1318 1668 L 1316 1663 L 1317 1659 L 1312 1654 L 1301 1657 L 1276 1667 L 1275 1666 L 1269 1670 L 1268 1669 L 1265 1671 L 1264 1670 L 1255 1675 L 1254 1674 L 1252 1676 L 1251 1675 L 1239 1680 L 1238 1679 L 1236 1681 L 1225 1684 L 1223 1686 L 1222 1685 L 1210 1690 L 1209 1689 L 1207 1691 L 1201 1692 L 1199 1694 L 1198 1693 L 1188 1697 L 1187 1696 L 1185 1698 L 1184 1697 L 1182 1699 L 1179 1699 L 1173 1702 L 1172 1701 L 1156 1706 L 1155 1705 L 1148 1708 L 1134 1710 L 1130 1712 L 1129 1711 L 1122 1712 L 1118 1714 L 1116 1713 L 1104 1716 L 1103 1715 L 1101 1716 L 1098 1715 L 1093 1717 L 1090 1716 L 1084 1718 L 1079 1717 L 1071 1719 L 1067 1718 L 1065 1720 L 1064 1719 L 1058 1719 L 1057 1720 L 1050 1720 L 1049 1719 L 1045 1721 L 1044 1720 L 1036 1720 L 1035 1721 L 1028 1721 L 1027 1720 L 1023 1722 L 1022 1721 L 1017 1722 L 1015 1721 L 957 1721 L 955 1722 L 946 1720 L 944 1721 L 912 1720 L 911 1719 L 906 1720 L 905 1719 L 880 1717 L 871 1715 L 868 1716 L 863 1714 L 857 1714 L 856 1713 L 850 1713 L 849 1712 L 828 1709 L 825 1707 L 824 1708 L 813 1705 L 812 1706 L 803 1702 L 802 1703 L 799 1701 L 798 1702 L 786 1698 L 785 1699 L 781 1696 L 780 1697 L 773 1694 L 772 1695 L 770 1693 L 758 1690 L 756 1688 L 755 1689 L 746 1685 L 745 1686 L 743 1684 L 735 1682 L 733 1680 L 732 1681 L 726 1678 L 725 1679 L 719 1675 L 718 1676 L 692 1666 L 680 1660 L 677 1660 L 671 1656 L 668 1656 L 666 1654 L 640 1641 L 638 1641 L 634 1637 L 630 1636 L 610 1625 L 609 1623 L 605 1622 L 604 1620 L 600 1619 L 599 1617 L 595 1616 L 578 1605 L 577 1603 L 575 1603 L 574 1601 L 571 1601 L 570 1599 L 568 1599 L 565 1595 L 563 1595 L 558 1590 L 556 1590 L 505 1550 L 501 1545 L 494 1540 L 493 1537 L 485 1531 L 469 1515 L 463 1507 L 462 1508 L 449 1491 L 448 1492 L 442 1483 L 439 1481 L 433 1471 L 432 1472 L 424 1460 L 423 1461 L 417 1451 L 416 1452 L 410 1442 L 408 1441 L 402 1432 L 400 1431 L 400 1429 L 390 1415 L 388 1414 L 388 1412 L 382 1403 L 380 1402 L 380 1400 L 378 1399 L 378 1396 L 376 1395 L 376 1393 L 374 1392 L 371 1385 L 369 1384 L 365 1376 L 363 1375 L 363 1373 L 358 1364 L 356 1363 L 355 1358 L 353 1357 L 349 1348 L 346 1345 L 339 1328 L 327 1307 L 326 1301 L 322 1296 L 322 1293 L 310 1266 L 311 1265 L 308 1262 L 309 1261 L 307 1258 L 306 1253 L 304 1251 L 305 1250 L 303 1247 L 294 1220 L 295 1219 L 292 1215 L 293 1214 L 291 1210 L 292 1209 L 289 1205 L 290 1204 L 288 1200 L 286 1189 L 283 1183 L 284 1182 L 275 1142 L 275 1137 L 273 1131 L 274 1129 L 272 1125 L 271 1113 L 269 1109 L 270 1108 L 269 1100 L 267 1095 L 268 1094 L 267 1091 L 268 1089 L 266 1084 L 266 1076 L 265 1075 L 266 1072 L 263 1061 L 264 1060 L 263 1050 L 262 1049 L 263 1048 L 262 1044 L 263 1039 L 262 1038 L 261 1018 L 260 1017 L 261 1016 L 261 1006 L 260 1005 L 260 964 L 261 963 L 261 956 L 260 955 L 262 951 L 261 950 L 261 943 L 262 942 L 261 937 L 263 929 L 262 925 L 263 924 L 263 918 L 265 913 L 264 912 L 265 909 L 264 906 L 267 896 L 266 894 L 269 880 L 268 878 L 270 874 L 273 854 L 278 836 L 277 835 L 279 832 L 279 829 L 281 826 L 280 825 L 284 814 L 283 813 L 285 810 L 288 801 L 287 800 L 289 798 L 295 780 L 294 779 L 296 777 L 295 776 L 297 774 L 296 773 L 298 771 L 297 770 L 299 768 L 302 757 L 304 755 L 303 754 L 306 748 L 305 747 L 309 741 L 308 740 L 312 733 L 311 732 L 317 719 L 317 716 L 324 704 L 323 703 L 328 695 L 330 687 L 335 678 L 338 675 L 338 673 L 343 666 L 343 664 L 355 643 L 357 642 L 358 638 L 360 637 L 361 633 L 365 629 L 365 626 L 367 625 L 370 619 L 372 618 L 372 615 L 374 614 L 378 607 L 380 606 L 382 601 L 387 594 L 389 593 L 393 585 L 394 586 L 395 582 L 402 575 L 402 573 L 405 570 L 407 566 L 408 567 L 410 562 L 413 560 L 421 550 L 423 546 L 424 547 L 434 533 L 435 534 L 439 527 L 451 516 L 459 505 L 463 503 L 484 482 L 485 479 L 500 467 L 499 466 L 509 459 L 508 458 L 516 453 L 515 452 L 520 449 L 525 444 L 528 443 L 531 439 L 534 438 L 533 437 L 548 427 L 547 426 L 557 420 L 564 413 L 568 412 L 569 410 L 577 405 L 578 403 L 580 403 L 586 398 L 588 398 L 589 396 L 591 396 L 592 394 L 594 394 L 595 392 L 597 392 L 598 390 L 603 388 L 604 386 L 613 381 L 614 379 L 619 378 L 620 376 L 624 375 L 625 373 L 630 371 L 631 369 L 640 366 L 644 362 L 646 362 L 674 348 L 676 346 L 678 347 L 686 342 L 720 328 L 731 325 L 734 323 L 735 324 L 737 322 L 752 317 L 753 318 L 758 315 L 792 306 L 795 304 L 796 305 L 801 303 L 802 304 L 805 302 L 817 300 L 820 298 L 821 299 L 853 292 L 871 290 L 875 288 L 876 289 L 882 287 L 885 288 L 893 286 L 900 286 L 906 284 L 907 285 L 910 284 L 914 285 L 925 282 L 926 283 L 936 282 L 937 283 L 940 281 L 941 282 L 946 282 L 947 281 L 956 281 L 957 280 L 958 281 L 965 281 L 966 280 L 972 280 L 973 281 L 974 280 L 993 280 L 996 279 L 1005 281 L 1006 280 L 1015 280 L 1016 281 L 1021 281 L 1022 280 L 1025 282 L 1026 281 L 1032 281 L 1033 282 L 1038 282 L 1039 281 L 1040 282 L 1055 283 L 1056 284 L 1060 283 L 1062 285 L 1063 284 L 1073 285 L 1074 286 L 1077 285 L 1086 288 L 1088 287 L 1089 288 L 1102 289 L 1106 291 L 1108 290 L 1144 297 L 1147 299 L 1148 298 L 1158 301 L 1159 300 L 1164 303 L 1165 302 L 1170 304 L 1171 303 L 1185 308 L 1186 307 L 1190 310 L 1191 309 L 1195 311 L 1196 310 L 1200 313 L 1201 312 L 1217 318 L 1218 317 L 1223 320 L 1224 319 L 1233 324 L 1234 323 L 1253 331 L 1254 330 L 1257 333 L 1258 332 L 1282 343 L 1285 343 L 1295 349 L 1298 349 L 1300 351 L 1326 364 L 1328 364 L 1332 368 L 1342 372 L 1343 374 L 1348 375 L 1349 377 L 1353 378 L 1356 381 L 1358 381 L 1363 386 L 1366 386 L 1367 388 L 1392 404 L 1393 406 L 1401 410 L 1400 411 L 1402 411 L 1407 416 L 1409 416 L 1416 422 L 1419 423 L 1425 429 L 1429 431 L 1428 432 L 1439 439 L 1438 440 L 1444 443 L 1443 444 L 1450 448 L 1453 452 L 1459 456 L 1458 457 L 1467 463 L 1468 466 L 1481 476 L 1482 479 L 1498 495 L 1504 499 L 1517 515 L 1518 514 L 1525 524 L 1526 523 L 1537 538 L 1538 537 L 1542 544 L 1543 543 L 1545 547 L 1553 556 L 1554 559 L 1555 558 L 1557 562 L 1559 563 L 1560 566 L 1569 578 L 1571 579 L 1572 583 L 1573 582 L 1577 590 L 1581 593 L 1581 595 L 1590 607 L 1590 609 L 1592 610 L 1592 612 L 1594 613 L 1599 622 L 1601 623 L 1601 626 L 1605 630 L 1606 634 L 1609 637 L 1609 639 L 1614 644 L 1616 651 L 1619 653 L 1621 660 L 1624 663 L 1649 715 L 1651 722 L 1654 727 L 1653 728 L 1658 737 L 1657 738 L 1661 744 L 1660 745 L 1666 759 L 1665 760 L 1667 762 L 1666 763 L 1668 765 L 1672 780 L 1674 782 L 1673 783 L 1676 789 L 1675 790 L 1679 801 L 1678 802 L 1680 805 L 1682 816 L 1686 828 L 1688 838 L 1687 839 L 1689 842 L 1690 847 L 1689 848 L 1692 854 L 1691 856 L 1693 862 L 1694 872 L 1696 876 L 1695 877 L 1696 885 L 1698 889 L 1697 891 L 1700 903 L 1699 906 L 1701 911 L 1700 914 L 1702 923 L 1703 943 L 1705 951 L 1704 952 L 1704 957 L 1705 958 L 1704 963 L 1706 966 L 1705 967 L 1705 972 L 1706 973 L 1706 981 L 1705 982 L 1707 986 L 1706 987 L 1706 996 L 1707 997 L 1707 1014 L 1706 1016 L 1707 1017 L 1707 1037 L 1708 1038 L 1708 1045 L 1707 1046 L 1708 1200 L 1707 1201 L 1707 1206 L 1708 1207 L 1708 1235 L 1709 1236 L 1709 1242 L 1708 1243 L 1708 1322 L 1709 1323 L 1709 1409 L 1708 1410 L 1708 1417 L 1709 1418 L 1709 1448 L 1710 1449 L 1710 1455 L 1709 1456 L 1709 1530 L 1710 1531 L 1710 1605 L 1709 1606 L 1709 1612 L 1710 1613 L 1710 1642 L 1711 1643 L 1711 1649 L 1710 1650 L 1710 1730 L 1711 1731 L 1711 1816 L 1710 1817 L 1710 1824 L 1711 1825 L 1711 1856 L 1712 1857 L 1711 1867 L 1728 1867 L 1729 1868 L 1812 1867 L 1817 1862 L 1818 1859 L 1818 1853 L 1817 1852 L 1819 1848 L 1818 1847 L 1818 1039 L 1819 1034 L 1817 1024 L 1818 1021 L 1817 1001 L 1818 1000 L 1817 999 L 1817 987 L 1816 986 L 1816 980 L 1817 979 L 1815 976 L 1816 975 L 1816 969 L 1814 960 L 1815 959 L 1814 954 L 1815 950 L 1812 936 L 1813 935 L 1812 931 L 1813 928 L 1811 926 L 1812 923 L 1811 922 L 1811 913 L 1809 908 L 1810 905 L 1808 897 L 1809 894 L 1806 882 L 1807 880 L 1805 876 L 1805 870 L 1803 863 L 1804 861 L 1802 860 L 1803 858 L 1800 847 L 1801 845 L 1799 841 L 1797 827 L 1794 817 L 1795 816 L 1793 815 L 1794 814 L 1792 808 L 1793 807 L 1791 804 L 1792 803 L 1790 800 L 1791 799 L 1789 796 L 1790 795 L 1787 788 L 1788 787 L 1783 775 L 1784 774 L 1781 768 L 1782 767 L 1779 761 L 1780 760 L 1778 756 L 1778 753 L 1776 751 L 1777 750 L 1773 740 L 1774 739 L 1770 732 L 1771 731 L 1768 725 L 1769 724 L 1767 722 L 1764 711 L 1759 700 L 1760 699 L 1757 696 L 1758 695 L 1752 682 L 1753 681 L 1750 677 L 1741 656 L 1741 653 L 1730 633 L 1730 630 L 1719 608 L 1716 605 L 1714 598 L 1711 595 L 1706 586 L 1706 584 L 1704 583 L 1701 578 L 1700 574 L 1698 573 L 1697 569 L 1695 568 L 1689 557 L 1687 556 L 1687 553 L 1685 552 L 1685 550 L 1683 549 L 1679 543 L 1679 541 L 1677 540 L 1677 538 L 1673 535 L 1673 533 L 1668 527 L 1668 525 L 1667 526 L 1663 518 L 1662 519 L 1661 518 L 1661 516 L 1655 509 L 1654 506 L 1651 504 L 1651 502 L 1650 503 L 1648 499 L 1629 476 L 1628 473 L 1627 474 L 1624 469 L 1620 466 L 1609 451 L 1608 452 L 1600 441 L 1598 441 L 1589 430 L 1559 400 L 1549 392 L 1548 389 L 1539 383 L 1522 366 L 1518 364 L 1513 359 L 1509 357 L 1510 356 L 1507 355 L 1502 350 L 1494 345 L 1495 344 L 1489 341 L 1490 340 L 1487 339 L 1486 337 L 1483 336 L 1472 327 L 1470 327 L 1469 326 L 1470 325 L 1462 321 L 1463 320 L 1461 320 L 1455 315 L 1453 315 L 1452 314 L 1453 313 L 1451 313 L 1450 311 L 1448 311 L 1425 295 L 1423 295 L 1419 291 L 1412 288 L 1410 285 L 1403 283 L 1402 281 L 1394 278 L 1392 275 L 1381 271 L 1377 267 L 1375 267 L 1341 250 L 1339 248 L 1336 248 L 1328 243 L 1324 243 L 1312 236 L 1310 237 L 1308 235 L 1292 229 L 1290 227 L 1289 228 L 1281 224 L 1280 225 L 1277 222 L 1276 223 L 1269 219 L 1268 220 L 1265 218 L 1257 216 L 1255 214 L 1254 215 L 1251 213 L 1239 210 L 1237 208 L 1236 209 L 1229 206 L 1228 207 L 1226 205 L 1223 205 L 1214 201 L 1213 202 L 1202 198 L 1201 199 L 1189 194 L 1188 195 L 1183 193 L 1182 194 L 1179 192 L 1171 190 L 1170 191 L 1167 189 L 1163 189 L 1148 185 L 1147 186 L 1146 184 L 1144 185 L 1124 181 L 1120 179 L 1115 180 L 1111 178 L 1105 178 L 1104 177 L 1102 178 L 1098 176 L 1091 176 L 1090 175 L 1082 175 L 1081 174 L 1064 173 L 1063 172 L 1059 173 L 1053 171 L 1049 172 L 1047 170 L 1046 171 L 1035 170 L 1034 171 L 1031 169 L 1030 170 L 1009 169 L 1008 168 L 1007 169 L 964 169 L 963 168 L 958 170 L 957 169 L 948 169 L 947 170 L 942 169 L 940 171 L 939 170 L 934 171 L 929 170 L 917 173 L 913 172 L 912 173 L 905 173 L 900 175 L 899 174 L 889 176 L 887 175 L 871 179 L 870 178 L 867 179 L 865 178 L 860 180 L 858 179 L 850 182 L 848 181 L 830 185 L 828 184 L 827 186 L 825 185 L 810 188 L 807 190 L 803 189 L 802 191 L 801 190 L 778 196 L 774 196 L 764 200 L 763 199 L 753 203 L 750 202 L 739 207 L 738 206 L 727 210 L 726 209 L 724 211 L 721 211 L 719 213 L 718 212 L 716 214 L 715 213 L 708 216 L 707 215 L 705 217 L 702 217 L 695 221 L 694 220 L 687 224 L 686 223 L 673 228 L 669 231 L 667 230 L 665 232 L 649 238 L 641 243 L 639 242 L 632 247 L 629 247 L 617 254 L 607 257 L 595 265 L 577 273 L 576 275 L 569 277 L 567 280 L 561 282 L 554 286 L 553 288 L 543 292 L 538 297 L 531 300 L 527 304 L 524 304 L 523 306 L 517 310 L 515 310 L 512 314 L 509 314 L 506 318 L 504 318 L 498 323 L 496 323 L 495 325 L 486 331 L 485 333 L 481 334 L 482 335 L 477 337 L 478 338 L 468 344 L 469 345 L 465 347 L 448 361 L 444 366 Z M 435 416 L 435 414 L 449 403 L 452 399 L 458 396 L 457 395 L 461 393 L 472 383 L 475 382 L 474 381 L 478 379 L 490 369 L 493 368 L 492 367 L 496 365 L 504 359 L 505 357 L 507 357 L 512 352 L 514 352 L 521 346 L 523 346 L 526 342 L 528 342 L 546 330 L 547 328 L 549 328 L 550 326 L 553 326 L 554 324 L 560 321 L 561 319 L 564 319 L 565 317 L 573 313 L 574 311 L 579 310 L 581 307 L 586 306 L 587 304 L 593 302 L 594 300 L 598 298 L 600 298 L 602 295 L 613 291 L 617 287 L 619 287 L 641 275 L 645 275 L 655 269 L 658 269 L 665 264 L 668 264 L 672 261 L 673 262 L 678 259 L 708 248 L 710 246 L 711 247 L 734 238 L 735 239 L 737 237 L 746 235 L 748 233 L 749 234 L 769 227 L 772 227 L 776 225 L 777 226 L 788 221 L 791 222 L 794 220 L 809 217 L 812 215 L 813 216 L 849 208 L 851 209 L 855 207 L 861 207 L 862 206 L 864 207 L 873 204 L 876 205 L 881 203 L 884 204 L 885 203 L 902 202 L 903 201 L 907 202 L 915 200 L 920 201 L 923 199 L 924 200 L 929 200 L 930 199 L 939 199 L 940 198 L 941 199 L 948 199 L 949 198 L 962 198 L 963 199 L 964 198 L 985 198 L 986 199 L 989 198 L 1007 198 L 1008 199 L 1018 199 L 1019 198 L 1021 200 L 1022 199 L 1028 199 L 1029 200 L 1035 200 L 1036 199 L 1039 201 L 1040 200 L 1052 201 L 1053 202 L 1054 201 L 1058 202 L 1062 201 L 1064 203 L 1068 202 L 1074 204 L 1075 203 L 1078 204 L 1081 203 L 1087 205 L 1090 204 L 1095 206 L 1097 205 L 1102 207 L 1104 206 L 1109 208 L 1114 208 L 1118 210 L 1123 209 L 1127 211 L 1137 212 L 1141 214 L 1143 213 L 1169 219 L 1172 221 L 1175 220 L 1178 222 L 1192 225 L 1198 228 L 1199 227 L 1213 232 L 1214 231 L 1221 235 L 1222 234 L 1229 237 L 1230 236 L 1232 238 L 1252 244 L 1254 246 L 1255 245 L 1262 249 L 1263 248 L 1284 257 L 1285 256 L 1287 258 L 1303 264 L 1309 268 L 1311 267 L 1321 273 L 1324 273 L 1326 275 L 1358 291 L 1360 291 L 1362 294 L 1370 297 L 1371 299 L 1378 301 L 1379 303 L 1389 308 L 1390 310 L 1394 311 L 1395 313 L 1399 314 L 1400 316 L 1403 316 L 1404 318 L 1406 318 L 1407 320 L 1416 325 L 1417 327 L 1420 327 L 1421 329 L 1426 331 L 1429 335 L 1431 335 L 1432 337 L 1434 337 L 1438 341 L 1446 345 L 1445 346 L 1447 346 L 1457 354 L 1459 354 L 1460 356 L 1464 358 L 1463 359 L 1468 361 L 1467 362 L 1470 363 L 1471 365 L 1486 375 L 1485 376 L 1491 379 L 1490 380 L 1496 383 L 1495 384 L 1502 388 L 1501 389 L 1505 391 L 1508 395 L 1523 406 L 1527 411 L 1534 416 L 1535 419 L 1556 437 L 1574 458 L 1578 460 L 1586 471 L 1589 472 L 1591 476 L 1603 490 L 1607 493 L 1610 499 L 1611 498 L 1614 504 L 1621 511 L 1628 522 L 1629 521 L 1630 522 L 1630 524 L 1639 535 L 1639 537 L 1640 536 L 1641 539 L 1646 544 L 1646 546 L 1651 552 L 1651 554 L 1653 555 L 1653 557 L 1655 558 L 1655 560 L 1657 561 L 1657 563 L 1659 564 L 1669 581 L 1671 582 L 1674 590 L 1676 591 L 1677 595 L 1679 596 L 1680 600 L 1682 601 L 1684 607 L 1687 609 L 1691 620 L 1695 624 L 1695 626 L 1709 652 L 1709 656 L 1715 665 L 1715 668 L 1719 674 L 1719 677 L 1725 688 L 1724 690 L 1727 694 L 1733 709 L 1732 710 L 1735 713 L 1734 714 L 1736 717 L 1735 718 L 1739 724 L 1738 725 L 1741 731 L 1740 732 L 1742 734 L 1749 755 L 1749 758 L 1751 760 L 1750 761 L 1754 770 L 1753 771 L 1756 777 L 1755 778 L 1759 788 L 1758 791 L 1760 794 L 1763 806 L 1762 807 L 1765 814 L 1765 818 L 1768 828 L 1767 829 L 1769 832 L 1768 834 L 1770 835 L 1769 839 L 1771 840 L 1770 842 L 1772 852 L 1774 856 L 1773 858 L 1776 871 L 1775 873 L 1778 881 L 1777 883 L 1778 884 L 1779 899 L 1781 904 L 1780 905 L 1781 908 L 1780 911 L 1782 917 L 1782 926 L 1783 927 L 1783 938 L 1784 939 L 1783 944 L 1785 953 L 1785 958 L 1784 959 L 1786 962 L 1785 963 L 1785 970 L 1786 971 L 1786 979 L 1785 980 L 1787 985 L 1786 987 L 1786 1002 L 1787 1003 L 1786 1049 L 1787 1050 L 1787 1076 L 1788 1077 L 1788 1082 L 1787 1083 L 1787 1195 L 1788 1196 L 1788 1287 L 1787 1288 L 1787 1295 L 1788 1296 L 1788 1331 L 1789 1332 L 1789 1339 L 1788 1340 L 1789 1837 L 1788 1838 L 1740 1838 L 1739 1837 L 1740 1832 L 1740 1748 L 1739 1747 L 1739 1665 L 1740 1664 L 1740 1658 L 1739 1657 L 1739 1628 L 1738 1627 L 1739 1622 L 1739 1547 L 1738 1546 L 1738 1476 L 1739 1475 L 1739 1470 L 1738 1469 L 1738 1442 L 1737 1441 L 1737 1436 L 1738 1435 L 1738 1354 L 1737 1353 L 1737 1269 L 1738 1268 L 1738 1263 L 1737 1262 L 1737 1234 L 1736 1233 L 1736 1228 L 1737 1227 L 1737 1159 L 1736 1158 L 1736 1075 L 1737 1074 L 1737 1068 L 1736 1067 L 1736 1045 L 1735 1044 L 1736 1039 L 1736 1007 L 1735 1006 L 1735 990 L 1736 988 L 1734 982 L 1735 981 L 1735 972 L 1734 971 L 1734 964 L 1735 963 L 1733 959 L 1734 958 L 1734 952 L 1733 951 L 1732 925 L 1731 924 L 1731 915 L 1729 909 L 1730 906 L 1728 900 L 1729 897 L 1727 892 L 1728 889 L 1725 875 L 1726 873 L 1724 869 L 1720 843 L 1718 840 L 1719 839 L 1717 833 L 1718 832 L 1716 829 L 1712 813 L 1713 812 L 1710 806 L 1711 805 L 1708 801 L 1709 800 L 1702 779 L 1703 778 L 1699 771 L 1700 770 L 1695 757 L 1696 756 L 1694 754 L 1695 753 L 1693 751 L 1691 743 L 1689 740 L 1690 739 L 1686 732 L 1687 731 L 1684 727 L 1685 726 L 1682 722 L 1683 721 L 1680 717 L 1681 716 L 1679 714 L 1672 696 L 1667 688 L 1667 685 L 1659 671 L 1659 667 L 1652 657 L 1646 642 L 1642 638 L 1641 633 L 1638 631 L 1636 625 L 1634 624 L 1633 620 L 1630 615 L 1628 614 L 1628 612 L 1625 609 L 1624 605 L 1617 594 L 1615 593 L 1615 590 L 1613 589 L 1611 584 L 1609 583 L 1605 576 L 1603 575 L 1600 568 L 1599 569 L 1598 566 L 1593 561 L 1592 557 L 1591 558 L 1590 557 L 1590 555 L 1584 548 L 1583 545 L 1580 543 L 1568 528 L 1567 525 L 1566 526 L 1556 512 L 1555 513 L 1548 503 L 1545 502 L 1535 489 L 1533 489 L 1513 469 L 1513 467 L 1505 461 L 1495 451 L 1491 449 L 1477 435 L 1471 432 L 1460 421 L 1448 411 L 1444 409 L 1445 408 L 1442 407 L 1437 402 L 1428 396 L 1427 394 L 1422 392 L 1423 391 L 1419 390 L 1414 385 L 1412 385 L 1409 381 L 1402 378 L 1399 374 L 1397 374 L 1396 372 L 1393 372 L 1392 370 L 1390 370 L 1389 368 L 1380 363 L 1379 361 L 1371 358 L 1370 356 L 1366 355 L 1361 350 L 1356 349 L 1354 346 L 1346 343 L 1343 340 L 1330 335 L 1322 329 L 1320 329 L 1311 324 L 1308 324 L 1306 322 L 1282 311 L 1279 311 L 1274 307 L 1273 308 L 1269 305 L 1268 306 L 1264 303 L 1263 304 L 1254 299 L 1253 300 L 1239 294 L 1238 295 L 1232 291 L 1231 292 L 1225 290 L 1223 288 L 1222 289 L 1220 287 L 1219 288 L 1206 283 L 1187 278 L 1184 276 L 1181 277 L 1178 275 L 1168 273 L 1165 271 L 1164 272 L 1159 270 L 1155 270 L 1148 267 L 1147 268 L 1141 266 L 1140 267 L 1137 265 L 1122 263 L 1118 261 L 1117 262 L 1108 260 L 1106 261 L 1098 258 L 1096 259 L 1095 258 L 1072 256 L 1071 255 L 1062 255 L 1054 253 L 1053 254 L 1044 253 L 1043 254 L 1042 253 L 1024 252 L 1023 251 L 1022 252 L 1019 251 L 1018 252 L 1006 252 L 1005 251 L 960 252 L 959 251 L 954 253 L 953 252 L 933 253 L 924 255 L 923 254 L 909 255 L 908 256 L 904 255 L 894 258 L 891 257 L 886 259 L 885 258 L 883 259 L 880 258 L 875 260 L 857 262 L 819 270 L 818 269 L 815 271 L 807 272 L 804 274 L 803 273 L 794 276 L 790 276 L 784 279 L 781 278 L 773 282 L 772 281 L 759 286 L 758 285 L 754 287 L 753 286 L 749 289 L 748 288 L 741 291 L 735 292 L 733 294 L 732 293 L 723 296 L 721 298 L 720 297 L 712 301 L 711 300 L 708 303 L 707 302 L 698 307 L 696 306 L 691 310 L 689 309 L 683 313 L 680 313 L 674 317 L 671 317 L 660 324 L 652 326 L 650 328 L 636 335 L 634 335 L 630 339 L 620 343 L 619 345 L 611 348 L 610 350 L 605 351 L 604 353 L 599 355 L 598 357 L 594 358 L 593 360 L 589 361 L 581 366 L 580 368 L 577 368 L 576 370 L 564 377 L 563 379 L 561 379 L 560 381 L 558 381 L 549 388 L 547 388 L 542 393 L 540 393 L 541 394 L 540 395 L 538 395 L 518 411 L 515 412 L 516 413 L 505 420 L 506 421 L 499 425 L 500 426 L 483 439 L 431 491 L 426 499 L 425 498 L 423 502 L 413 513 L 411 517 L 410 516 L 406 523 L 402 526 L 399 531 L 398 530 L 394 537 L 393 536 L 390 542 L 389 541 L 387 546 L 380 553 L 365 573 L 365 575 L 363 576 L 358 584 L 356 585 L 356 587 L 349 596 L 349 598 L 347 599 L 344 605 L 342 606 L 342 608 L 334 621 L 332 622 L 331 626 L 329 627 L 328 632 L 326 633 L 324 639 L 321 641 L 319 648 L 316 651 L 306 672 L 304 674 L 304 677 L 299 685 L 299 689 L 295 694 L 296 696 L 294 698 L 289 710 L 290 711 L 288 713 L 282 733 L 280 735 L 281 736 L 279 739 L 280 740 L 275 749 L 276 750 L 273 756 L 274 757 L 272 759 L 265 780 L 266 781 L 264 783 L 265 784 L 262 788 L 263 789 L 258 803 L 259 804 L 256 810 L 257 811 L 253 819 L 254 820 L 252 823 L 253 824 L 251 829 L 252 830 L 250 833 L 251 835 L 249 839 L 245 865 L 244 866 L 245 868 L 243 872 L 244 874 L 242 878 L 242 884 L 240 892 L 241 894 L 238 903 L 239 906 L 237 911 L 238 914 L 236 923 L 237 927 L 235 929 L 236 933 L 234 939 L 235 940 L 234 944 L 235 949 L 233 958 L 234 963 L 233 964 L 233 974 L 232 975 L 232 982 L 233 983 L 231 988 L 232 989 L 232 1031 L 231 1033 L 233 1040 L 232 1041 L 233 1058 L 234 1059 L 233 1060 L 233 1065 L 234 1066 L 233 1070 L 235 1072 L 234 1073 L 235 1077 L 234 1081 L 237 1092 L 236 1093 L 237 1103 L 238 1104 L 240 1123 L 242 1127 L 241 1129 L 247 1155 L 246 1156 L 248 1159 L 250 1171 L 253 1177 L 252 1178 L 255 1186 L 254 1187 L 256 1190 L 261 1208 L 263 1210 L 262 1211 L 267 1224 L 266 1225 L 268 1227 L 267 1228 L 269 1230 L 272 1242 L 280 1263 L 279 1264 L 281 1266 L 283 1274 L 289 1288 L 288 1289 L 291 1293 L 290 1294 L 293 1298 L 292 1299 L 295 1303 L 294 1304 L 296 1306 L 297 1311 L 304 1323 L 304 1327 L 309 1334 L 310 1340 L 314 1346 L 320 1360 L 325 1366 L 328 1375 L 331 1378 L 337 1389 L 337 1391 L 340 1393 L 344 1403 L 349 1408 L 352 1416 L 354 1417 L 359 1426 L 361 1427 L 361 1429 L 363 1430 L 363 1433 L 365 1434 L 370 1441 L 372 1446 L 379 1453 L 380 1457 L 381 1456 L 382 1457 L 382 1459 L 385 1462 L 386 1465 L 388 1466 L 389 1469 L 390 1468 L 395 1476 L 403 1484 L 404 1487 L 408 1490 L 412 1497 L 413 1496 L 419 1505 L 422 1506 L 427 1513 L 446 1533 L 460 1544 L 464 1549 L 468 1551 L 477 1560 L 481 1562 L 480 1563 L 483 1564 L 494 1574 L 499 1577 L 498 1578 L 505 1582 L 504 1583 L 511 1587 L 510 1588 L 512 1588 L 516 1592 L 520 1594 L 519 1595 L 522 1596 L 526 1600 L 528 1600 L 529 1601 L 528 1602 L 533 1604 L 532 1605 L 536 1606 L 537 1608 L 546 1614 L 547 1616 L 549 1616 L 556 1621 L 557 1623 L 559 1623 L 562 1626 L 577 1635 L 578 1637 L 581 1637 L 586 1642 L 590 1643 L 591 1645 L 595 1646 L 600 1649 L 601 1651 L 606 1652 L 607 1654 L 612 1656 L 613 1658 L 618 1659 L 622 1663 L 633 1667 L 635 1670 L 637 1670 L 657 1681 L 661 1681 L 683 1693 L 685 1692 L 687 1694 L 698 1699 L 699 1698 L 703 1701 L 704 1700 L 707 1703 L 708 1702 L 712 1705 L 713 1704 L 720 1708 L 721 1707 L 724 1709 L 725 1708 L 727 1710 L 752 1718 L 754 1720 L 755 1719 L 757 1721 L 758 1720 L 765 1723 L 766 1722 L 773 1726 L 774 1725 L 778 1727 L 779 1726 L 782 1728 L 792 1730 L 795 1732 L 796 1731 L 803 1734 L 804 1733 L 807 1735 L 808 1734 L 821 1738 L 826 1738 L 827 1739 L 829 1738 L 836 1741 L 837 1740 L 845 1742 L 847 1741 L 851 1743 L 863 1744 L 868 1746 L 869 1745 L 871 1746 L 874 1745 L 883 1748 L 886 1747 L 901 1750 L 902 1749 L 917 1750 L 918 1751 L 922 1750 L 932 1752 L 937 1752 L 938 1751 L 941 1753 L 942 1752 L 950 1752 L 951 1753 L 960 1753 L 961 1752 L 970 1754 L 973 1753 L 1006 1753 L 1007 1754 L 1012 1752 L 1013 1753 L 1020 1753 L 1021 1752 L 1026 1752 L 1027 1753 L 1028 1752 L 1037 1752 L 1038 1751 L 1043 1751 L 1044 1752 L 1050 1750 L 1054 1751 L 1056 1749 L 1060 1750 L 1066 1748 L 1067 1749 L 1077 1748 L 1078 1747 L 1081 1748 L 1086 1746 L 1099 1745 L 1103 1743 L 1104 1744 L 1112 1742 L 1114 1743 L 1115 1741 L 1117 1742 L 1128 1739 L 1130 1740 L 1131 1738 L 1133 1739 L 1140 1736 L 1141 1737 L 1151 1734 L 1152 1735 L 1157 1732 L 1158 1733 L 1163 1731 L 1164 1732 L 1167 1730 L 1168 1731 L 1171 1729 L 1178 1728 L 1180 1726 L 1181 1727 L 1185 1725 L 1186 1726 L 1188 1724 L 1201 1721 L 1206 1718 L 1207 1719 L 1223 1713 L 1233 1711 L 1239 1708 L 1242 1709 L 1245 1707 L 1246 1708 L 1249 1706 L 1250 1707 L 1251 1705 L 1252 1706 L 1257 1705 L 1260 1703 L 1262 1704 L 1281 1700 L 1283 1703 L 1288 1725 L 1288 1730 L 1287 1731 L 1288 1733 L 1283 1747 L 1279 1751 L 1277 1750 L 1272 1754 L 1269 1754 L 1267 1756 L 1264 1756 L 1257 1760 L 1256 1759 L 1254 1761 L 1253 1760 L 1250 1762 L 1247 1762 L 1245 1764 L 1244 1763 L 1231 1768 L 1230 1767 L 1224 1770 L 1223 1769 L 1217 1772 L 1206 1775 L 1205 1774 L 1196 1778 L 1195 1777 L 1182 1781 L 1178 1781 L 1175 1783 L 1174 1782 L 1168 1784 L 1167 1783 L 1164 1785 L 1160 1785 L 1155 1787 L 1130 1792 L 1128 1791 L 1127 1793 L 1125 1792 L 1105 1796 L 1099 1796 L 1094 1798 L 1093 1797 L 1083 1799 L 1080 1798 L 1075 1800 L 1072 1799 L 1066 1801 L 1057 1801 L 1056 1802 L 1047 1802 L 1046 1803 L 1041 1803 L 1040 1802 L 1039 1803 L 1023 1804 L 1022 1805 L 1021 1804 L 1016 1804 L 1015 1805 L 1003 1805 L 1002 1806 L 1001 1805 L 947 1805 L 946 1804 L 945 1805 L 937 1805 L 936 1804 L 930 1804 L 929 1805 L 926 1803 L 925 1804 L 920 1804 L 919 1803 L 914 1804 L 911 1802 L 910 1803 L 906 1802 L 902 1803 L 896 1801 L 892 1802 L 886 1800 L 883 1801 L 874 1798 L 873 1799 L 871 1798 L 868 1799 L 860 1796 L 855 1797 L 854 1795 L 849 1796 L 848 1794 L 843 1795 L 839 1793 L 829 1791 L 827 1792 L 826 1790 L 824 1791 L 805 1786 L 801 1786 L 757 1774 L 755 1772 L 754 1773 L 744 1769 L 743 1770 L 741 1768 L 732 1765 L 731 1766 L 729 1764 L 721 1762 L 719 1760 L 718 1761 L 715 1759 L 714 1760 L 712 1758 L 704 1756 L 697 1752 L 696 1753 L 693 1751 L 688 1750 L 673 1744 L 669 1741 L 667 1742 L 665 1740 L 660 1739 L 646 1731 L 642 1731 L 634 1726 L 631 1726 L 629 1724 L 605 1712 L 603 1712 L 599 1708 L 589 1704 L 588 1702 L 582 1700 L 573 1694 L 569 1693 L 568 1691 L 563 1689 L 562 1687 L 558 1686 L 554 1682 L 551 1682 L 550 1680 L 526 1665 L 521 1660 L 519 1660 L 514 1655 L 512 1655 L 503 1648 L 502 1646 L 497 1644 L 498 1643 L 496 1643 L 480 1630 L 469 1619 L 460 1613 L 459 1610 L 448 1602 L 406 1559 L 401 1552 L 398 1551 L 389 1539 L 386 1538 L 379 1528 L 378 1529 L 371 1519 L 370 1520 L 367 1515 L 363 1512 L 361 1508 L 347 1492 L 346 1489 L 345 1490 L 342 1484 L 341 1485 L 338 1479 L 335 1477 L 320 1457 L 320 1455 L 315 1450 L 315 1448 L 313 1447 L 308 1440 L 306 1435 L 300 1429 L 300 1426 L 298 1425 L 298 1423 L 296 1422 L 296 1420 L 292 1416 L 291 1412 L 288 1410 L 288 1408 L 286 1404 L 284 1403 L 284 1401 L 280 1395 L 275 1383 L 271 1379 L 271 1377 L 260 1357 L 259 1351 L 253 1341 L 253 1338 L 249 1333 L 249 1330 L 245 1324 L 245 1321 L 239 1306 L 236 1302 L 237 1301 L 234 1297 L 235 1296 L 233 1293 L 232 1288 L 230 1286 L 231 1285 L 229 1282 L 230 1281 L 226 1275 L 227 1274 L 223 1262 L 221 1260 L 222 1259 L 220 1257 L 221 1256 L 219 1254 L 220 1253 L 215 1241 L 216 1240 L 214 1236 L 214 1233 L 212 1231 L 213 1230 L 211 1226 L 205 1200 L 203 1197 L 204 1196 L 203 1191 L 201 1188 L 202 1187 L 201 1182 L 199 1179 L 200 1178 L 196 1162 L 197 1160 L 194 1151 L 194 1146 L 192 1139 L 193 1137 L 191 1133 L 191 1127 L 189 1123 L 190 1120 L 188 1115 L 189 1112 L 188 1111 L 188 1104 L 186 1095 L 187 1091 L 185 1089 L 186 1088 L 185 1074 L 184 1073 L 185 1068 L 183 1065 L 184 1064 L 184 1059 L 183 1058 L 183 1053 L 184 1052 L 182 1049 L 183 1048 L 183 1040 L 182 1039 L 182 1027 L 183 1026 L 181 1020 L 182 1018 L 182 967 L 181 965 L 183 959 L 182 958 L 182 949 L 183 948 L 183 941 L 182 940 L 184 937 L 183 936 L 184 923 L 185 922 L 184 921 L 185 916 L 184 912 L 186 910 L 185 906 L 186 905 L 187 888 L 188 887 L 188 880 L 190 875 L 189 873 L 190 872 L 193 848 L 196 837 L 195 835 L 197 834 L 196 833 L 203 802 L 207 792 L 206 791 L 209 785 L 208 784 L 210 780 L 210 777 L 219 750 L 221 748 L 220 747 L 224 738 L 223 737 L 225 735 L 227 727 L 229 724 L 228 723 L 232 716 L 231 715 L 236 707 L 235 706 L 240 696 L 240 693 L 242 691 L 243 687 L 247 681 L 247 678 L 252 670 L 252 666 L 263 647 L 280 612 L 282 611 L 284 605 L 288 598 L 290 597 L 291 592 L 293 591 L 305 570 L 309 566 L 312 559 L 323 544 L 323 542 L 324 541 L 325 542 L 325 540 L 333 530 L 333 528 L 334 527 L 335 528 L 336 524 L 338 523 L 347 511 L 349 507 L 350 508 L 351 505 L 368 485 L 371 480 L 372 481 L 376 474 L 385 466 L 399 449 L 401 449 L 421 429 L 421 427 Z" fill="#335F9D" fill-rule="evenodd"/>
</svg>
